<?xml version="1.0" encoding="UTF-8"?>
<svg width="76px" height="90px" viewBox="0 0 76 90" version="1.1" xmlns="http://www.w3.org/2000/svg" xmlns:xlink="http://www.w3.org/1999/xlink">
    <!-- Generator: Sketch 57.1 (83088) - https://sketch.com -->
    <title>checklist</title>
    <desc>Created with Sketch.</desc>
    <g id="Page-1" stroke="none" stroke-width="1" fill="none" fill-rule="evenodd">
        <g id="checklist">
            <circle id="Oval" fill="#FFE3B0" cx="15.5" cy="15.5" r="15.5"></circle>
            <circle id="Oval-Copy-2" fill="#FFC1C8" cx="57.5" cy="54.5" r="18.5"></circle>
            <circle id="Oval-Copy" fill-opacity="0.6" fill="#5BC0EB" cx="17.5" cy="72.5" r="17.5"></circle>
            <path d="M56.318,12.441 L51.636,12.441 C49.866,9.439 46.607,7.414 42.877,7.414 L42.666,7.414 C41.747,3.18 37.971,0 33.466,0 C28.961,0 25.185,3.18 24.266,7.414 L24.055,7.414 C20.325,7.414 17.066,9.439 15.296,12.441 L10.61,12.441 C6.86,12.441 3.809,15.492 3.809,19.242 L3.809,79.139 C3.809,82.894 6.86,85.95 10.61,85.95 L41.693,85.95 C41.865,85.95 42.029,85.922 42.188,85.881 C44.987,88.447 48.698,90.001 52.672,90.001 C61.228,90.001 68.189,83.04 68.189,74.484 C68.189,69.953 66.225,65.882 63.118,63.043 L63.118,19.243 C63.119,15.492 60.068,12.441 56.318,12.441 Z M64.19,74.483 C64.19,80.833 59.024,86 52.673,86 C47.313,86 42.583,82.208 41.427,76.983 C41.189,75.904 40.121,75.224 39.042,75.462 C37.964,75.7 37.283,76.768 37.521,77.847 C37.844,79.31 38.386,80.682 39.089,81.95 L10.61,81.95 C9.066,81.95 7.809,80.689 7.809,79.139 L7.809,19.242 C7.809,17.698 9.065,16.441 10.61,16.441 L13.953,16.441 C13.911,16.817 13.884,17.198 13.884,17.585 C13.884,18.689 14.78,19.585 15.884,19.585 L22.81,19.585 C23.914,19.585 24.81,18.689 24.81,17.585 C24.81,16.481 23.914,15.585 22.81,15.585 L18.216,15.585 C19.049,13.161 21.351,11.414 24.054,11.414 L26.052,11.414 C27.156,11.414 28.052,10.518 28.052,9.414 C28.052,6.429 30.481,4 33.466,4 C36.451,4 38.88,6.429 38.88,9.414 C38.88,10.518 39.776,11.414 40.88,11.414 L42.878,11.414 C45.581,11.414 47.883,13.161 48.716,15.585 L45.592,15.585 C45.52,15.585 45.452,15.599 45.383,15.606 C45.313,15.599 45.245,15.585 45.174,15.585 L39.749,15.585 C39.677,15.585 39.609,15.599 39.539,15.606 C39.469,15.599 39.401,15.585 39.329,15.585 L28.315,15.585 C27.211,15.585 26.315,16.481 26.315,17.585 C26.315,18.689 27.211,19.585 28.315,19.585 L39.327,19.585 C39.399,19.585 39.467,19.571 39.537,19.564 C39.607,19.571 39.675,19.585 39.747,19.585 L45.172,19.585 C45.244,19.585 45.312,19.571 45.381,19.564 C45.451,19.571 45.519,19.585 45.59,19.585 L51.047,19.585 C52.151,19.585 53.047,18.689 53.047,17.585 C53.047,17.198 53.021,16.817 52.978,16.441 L56.317,16.441 C57.861,16.441 59.118,17.697 59.118,19.242 L59.118,60.386 C57.152,59.483 54.974,58.966 52.672,58.966 C45.289,58.966 38.888,64.215 37.452,71.447 C37.237,72.53 37.941,73.583 39.024,73.799 C40.109,74.012 41.16,73.309 41.376,72.227 C42.441,66.861 47.192,62.967 52.672,62.967 C59.024,62.966 64.19,68.132 64.19,74.483 Z" id="Shape" fill="#000000" fill-rule="nonzero"></path>
            <path d="M64.19,74.483 C64.19,80.833 59.024,86 52.673,86 C47.313,86 42.583,82.208 41.427,76.983 C41.189,75.904 40.121,75.224 39.042,75.462 C37.964,75.7 37.283,76.768 37.521,77.847 C37.844,79.31 38.386,80.682 39.089,81.95 L10.61,81.95 C9.066,81.95 7.809,80.689 7.809,79.139 L7.809,19.242 C7.809,17.698 9.065,16.441 10.61,16.441 L13.953,16.441 C13.911,16.817 13.884,17.198 13.884,17.585 C13.884,18.689 14.78,19.585 15.884,19.585 L22.81,19.585 C23.914,19.585 24.81,18.689 24.81,17.585 C24.81,16.481 23.914,15.585 22.81,15.585 L18.216,15.585 C19.049,13.161 21.351,11.414 24.054,11.414 L26.052,11.414 C27.156,11.414 28.052,10.518 28.052,9.414 C28.052,6.429 30.481,4 33.466,4 C36.451,4 38.88,6.429 38.88,9.414 C38.88,10.518 39.776,11.414 40.88,11.414 L42.878,11.414 C45.581,11.414 47.883,13.161 48.716,15.585 L45.592,15.585 C45.52,15.585 45.452,15.599 45.383,15.606 C45.313,15.599 45.245,15.585 45.174,15.585 L39.749,15.585 C39.677,15.585 39.609,15.599 39.539,15.606 C39.469,15.599 39.401,15.585 39.329,15.585 L28.315,15.585 C27.211,15.585 26.315,16.481 26.315,17.585 C26.315,18.689 27.211,19.585 28.315,19.585 L39.327,19.585 C39.399,19.585 39.467,19.571 39.537,19.564 C39.607,19.571 39.675,19.585 39.747,19.585 L45.172,19.585 C45.244,19.585 45.312,19.571 45.381,19.564 C45.451,19.571 45.519,19.585 45.59,19.585 L51.047,19.585 C52.151,19.585 53.047,18.689 53.047,17.585 C53.047,17.198 53.021,16.817 52.978,16.441 L56.317,16.441 C57.861,16.441 59.118,17.697 59.118,19.242 L59.118,60.386 C57.152,59.483 54.974,58.966 52.672,58.966 C45.289,58.966 38.888,64.215 37.452,71.447 C37.237,72.53 37.941,73.583 39.024,73.799 C40.109,74.012 41.16,73.309 41.376,72.227 C42.441,66.861 47.192,62.967 52.672,62.967 C59.024,62.966 64.19,68.132 64.19,74.483 Z" id="Shape-path" fill="#FFFFFF"></path>
            <path d="M59.81,67.737 C58.911,67.096 57.662,67.303 57.02,68.202 L51.08,76.518 L47.396,72.834 C46.615,72.053 45.348,72.053 44.568,72.834 C43.787,73.615 43.787,74.881 44.568,75.662 L49.922,81.015 C50.298,81.392 50.808,81.601 51.336,81.601 C51.391,81.601 51.446,81.599 51.501,81.594 C52.087,81.546 52.622,81.241 52.963,80.763 L60.276,70.526 C60.917,69.628 60.709,68.379 59.81,67.737 Z" id="Path" fill="#000000" fill-rule="nonzero"></path>
            <path d="M16.672,35.49 C17.048,35.867 17.558,36.076 18.086,36.076 C18.141,36.076 18.196,36.074 18.251,36.069 C18.837,36.021 19.372,35.716 19.713,35.238 L24.499,28.537 C25.141,27.638 24.933,26.389 24.034,25.747 C23.134,25.104 21.885,25.313 21.244,26.212 L17.83,30.992 L16.309,29.471 C15.529,28.69 14.261,28.69 13.481,29.471 C12.7,30.252 12.7,31.518 13.481,32.299 L16.672,35.49 Z" id="Path" fill="#000000" fill-rule="nonzero"></path>
            <path d="M29.44,32.726 L38.308,32.726 L52.037,32.726 C53.141,32.726 54.037,31.83 54.037,30.726 C54.037,29.622 53.141,28.726 52.037,28.726 L38.309,28.726 L29.44,28.726 C28.336,28.726 27.44,29.622 27.44,30.726 C27.44,31.83 28.336,32.726 29.44,32.726 Z" id="Path" fill="#000000" fill-rule="nonzero"></path>
            <path d="M24.035,40.36 C23.136,39.717 21.887,39.926 21.245,40.825 L17.831,45.605 L16.31,44.084 C15.53,43.303 14.262,43.303 13.482,44.084 C12.701,44.865 12.701,46.131 13.482,46.912 L16.673,50.103 C17.049,50.48 17.559,50.689 18.087,50.689 C18.142,50.689 18.197,50.687 18.252,50.682 C18.838,50.634 19.373,50.329 19.714,49.851 L24.5,43.15 C25.142,42.251 24.934,41.002 24.035,40.36 Z" id="Path" fill="#000000" fill-rule="nonzero"></path>
            <path d="M29.44,47.337 L42.712,47.337 C43.816,47.337 44.712,46.441 44.712,45.337 C44.712,44.233 43.816,43.337 42.712,43.337 L29.44,43.337 C28.336,43.337 27.44,44.233 27.44,45.337 C27.44,46.441 28.336,47.337 29.44,47.337 Z" id="Path" fill="#000000" fill-rule="nonzero"></path>
            <path d="M52.037,43.337 L48.894,43.337 C47.79,43.337 46.894,44.233 46.894,45.337 C46.894,46.441 47.79,47.337 48.894,47.337 L52.037,47.337 C53.141,47.337 54.037,46.441 54.037,45.337 C54.037,44.233 53.142,43.337 52.037,43.337 Z" id="Path" fill="#000000" fill-rule="nonzero"></path>
            <path d="M24.035,54.972 C23.135,54.329 21.886,54.538 21.245,55.437 L17.831,60.217 L16.31,58.696 C15.53,57.915 14.262,57.915 13.482,58.696 C12.701,59.477 12.701,60.743 13.482,61.524 L16.673,64.715 C17.049,65.092 17.559,65.301 18.087,65.301 C18.142,65.301 18.197,65.299 18.252,65.294 C18.838,65.246 19.373,64.941 19.714,64.463 L24.5,57.762 C25.142,56.863 24.934,55.614 24.035,54.972 Z" id="Path" fill="#000000" fill-rule="nonzero"></path>
            <path d="M39.407,59.95 C39.407,58.846 38.511,57.95 37.407,57.95 L29.44,57.95 C28.336,57.95 27.44,58.846 27.44,59.95 C27.44,61.054 28.336,61.95 29.44,61.95 L37.407,61.95 C38.512,61.95 39.407,61.054 39.407,59.95 Z" id="Path" fill="#000000" fill-rule="nonzero"></path>
            <circle id="Oval" fill="#000000" fill-rule="nonzero" cx="33.466" cy="9.545" r="2.794"></circle>
        </g>
    </g>
</svg>