<?xml version="1.0" encoding="UTF-8"?>
<svg width="1440px" height="900px" viewBox="0 0 1440 900" version="1.1" xmlns="http://www.w3.org/2000/svg" xmlns:xlink="http://www.w3.org/1999/xlink">
    <!-- Generator: Sketch 57.1 (83088) - https://sketch.com -->
    <title>Artboard</title>
    <desc>Created with Sketch.</desc>
    <defs>
        <linearGradient x1="50.0032646%" y1="99.9929534%" x2="50.0032646%" y2="2.00276999e-15%" id="linearGradient-1">
            <stop stop-color="#808080" stop-opacity="0.25" offset="0%"></stop>
            <stop stop-color="#808080" stop-opacity="0.12" offset="54%"></stop>
            <stop stop-color="#808080" stop-opacity="0.1" offset="100%"></stop>
        </linearGradient>
        <linearGradient x1="50.0241935%" y1="99.9883158%" x2="50.0241935%" y2="0.0296167585%" id="linearGradient-2">
            <stop stop-color="#808080" stop-opacity="0.25" offset="0%"></stop>
            <stop stop-color="#808080" stop-opacity="0.12" offset="54%"></stop>
            <stop stop-color="#808080" stop-opacity="0.1" offset="100%"></stop>
        </linearGradient>
        <linearGradient x1="49.9955103%" y1="100.001232%" x2="49.9955103%" y2="-0.000140452491%" id="linearGradient-3">
            <stop stop-color="#808080" stop-opacity="0.25" offset="0%"></stop>
            <stop stop-color="#808080" stop-opacity="0.12" offset="54%"></stop>
            <stop stop-color="#808080" stop-opacity="0.1" offset="100%"></stop>
        </linearGradient>
        <linearGradient x1="49.9954465%" y1="99.9828115%" x2="49.9954465%" y2="0.00251985953%" id="linearGradient-4">
            <stop stop-color="#808080" stop-opacity="0.25" offset="0%"></stop>
            <stop stop-color="#808080" stop-opacity="0.12" offset="54%"></stop>
            <stop stop-color="#808080" stop-opacity="0.1" offset="100%"></stop>
        </linearGradient>
        <linearGradient x1="50.030931%" y1="99.9774172%" x2="50.030931%" y2="0.0260206048%" id="linearGradient-5">
            <stop stop-color="#808080" stop-opacity="0.25" offset="0%"></stop>
            <stop stop-color="#808080" stop-opacity="0.12" offset="54%"></stop>
            <stop stop-color="#808080" stop-opacity="0.1" offset="100%"></stop>
        </linearGradient>
    </defs>
    <g id="Artboard" stroke="none" stroke-width="1" fill="none" fill-rule="evenodd">
        <g id="Group-4" transform="translate(2.000000, 0.000000)" fill-rule="nonzero" opacity="0.3">
            <g id="Group" transform="translate(1042.000000, 329.000000)" fill="#47E6B1">
                <rect id="Rectangle" x="8.75" y="0.0949038462" width="3.64" height="20.2185577"></rect>
                <polygon id="Rectangle" transform="translate(10.570000, 10.204183) rotate(90.000000) translate(-10.570000, -10.204183) " points="8.785 -0.103317308 12.355 -0.103317308 12.355 20.5116827 8.785 20.5116827"></polygon>
            </g>
            <g id="Group" transform="translate(1243.000000, 491.000000)" fill="#47E6B1">
                <rect id="Rectangle" x="8.75" y="0.0949038462" width="3.64" height="20.2185577"></rect>
                <polygon id="Rectangle" transform="translate(10.570000, 10.204183) rotate(90.000000) translate(-10.570000, -10.204183) " points="8.785 -0.103317308 12.355 -0.103317308 12.355 20.5116827 8.785 20.5116827"></polygon>
            </g>
            <g id="Group-2">
                <path d="M1176.26314,153.668775 C1174.21008,152.772776 1173.15358,150.479849 1173.80591,148.335819 C1173.85942,148.178853 1173.89426,148.016128 1173.90973,147.851005 L1173.90973,147.851005 C1173.95954,146.883777 1173.3759,145.996211 1172.46846,145.659188 C1171.56103,145.322164 1170.53998,145.613749 1169.94701,146.379248 L1169.94701,146.379248 C1169.84955,146.513515 1169.76823,146.658807 1169.70475,146.812118 C1168.80929,148.866402 1166.51773,149.923531 1164.37498,149.270818 C1164.21811,149.217277 1164.05548,149.182407 1163.89046,149.166929 L1163.89046,149.166929 C1162.9238,149.117095 1162.03677,149.701078 1161.69995,150.609059 C1161.36312,151.517039 1161.65454,152.538699 1162.41958,153.132017 L1162.41958,153.132017 C1162.55376,153.229541 1162.69897,153.310905 1162.85219,153.374424 C1164.90525,154.270423 1165.96174,156.563349 1165.30942,158.707379 C1165.25591,158.864346 1165.22106,159.027071 1165.20559,159.192194 L1165.20559,159.192194 C1165.15579,160.159422 1165.73942,161.046988 1166.64686,161.384011 C1167.5543,161.721035 1168.57535,161.42945 1169.16831,160.663951 L1169.16831,160.663951 C1169.26578,160.529683 1169.34709,160.384392 1169.41058,160.231081 C1170.30604,158.176797 1172.5976,157.119668 1174.74035,157.772381 C1174.89722,157.825922 1175.05985,157.860792 1175.22487,157.876269 L1175.22487,157.876269 C1176.19152,157.926104 1177.07856,157.34212 1177.41538,156.43414 C1177.7522,155.526159 1177.46079,154.504499 1176.69575,153.911182 L1176.69575,153.911182 C1176.56156,153.813657 1176.41636,153.732294 1176.26314,153.668775 L1176.26314,153.668775 Z" id="Path" fill="#4D8AF0"></path>
                <path d="M793.834739,510.353481 C791.781682,509.457482 790.725184,507.164556 791.377507,505.020525 C791.431016,504.863559 791.465865,504.700834 791.481334,504.535711 L791.481334,504.535711 C791.531139,503.568483 790.947504,502.680917 790.040065,502.343894 C789.132627,502.00687 788.111577,502.298455 787.518614,503.063954 L787.518614,503.063954 C787.421148,503.198221 787.339833,503.343513 787.276352,503.496824 C786.380888,505.551108 784.08933,506.608237 781.94658,505.955524 C781.789708,505.901983 781.62708,505.867113 781.462056,505.851635 L781.462056,505.851635 C780.495405,505.801801 779.608369,506.385785 779.271547,507.293765 C778.934725,508.201746 779.226136,509.223406 779.991177,509.816723 L779.991177,509.816723 C780.125364,509.914248 780.270569,509.995611 780.423789,510.05913 C782.476846,510.955129 783.533343,513.248056 782.881021,515.392086 C782.827512,515.549052 782.792663,515.711777 782.777194,515.8769 L782.777194,515.8769 C782.727389,516.844128 783.311024,517.731694 784.218463,518.068717 C785.125901,518.405741 786.146951,518.114156 786.739914,517.348657 L786.739914,517.348657 C786.83738,517.21439 786.918695,517.069098 786.982176,516.915787 C787.87764,514.861503 790.169198,513.804374 792.311947,514.457087 C792.46882,514.510628 792.631448,514.545498 792.796472,514.560976 L792.796472,514.560976 C793.763122,514.61081 794.650159,514.026827 794.986981,513.118846 C795.323803,512.210865 795.032392,511.189206 794.267351,510.595888 L794.267351,510.595888 C794.133163,510.498364 793.987958,510.417 793.834739,510.353481 L793.834739,510.353481 Z" id="Path" fill="#4D8AF0"></path>
                <path d="M336.114667,577.621447 C334.061609,576.725447 333.005112,574.432521 333.657435,572.288491 C333.710944,572.131524 333.745793,571.968799 333.761261,571.803677 L333.761261,571.803677 C333.811066,570.836449 333.227431,569.948882 332.319993,569.611859 C331.412555,569.274836 330.391505,569.566421 329.798542,570.331919 L329.798542,570.331919 C329.701075,570.466187 329.619761,570.611478 329.55628,570.764789 C328.660815,572.819073 326.369258,573.876202 324.226508,573.223489 C324.069636,573.169948 323.907007,573.135079 323.741983,573.119601 L323.741983,573.119601 C322.775333,573.069766 321.888297,573.65375 321.551475,574.56173 C321.214653,575.469711 321.506064,576.491371 322.271105,577.084688 L322.271105,577.084688 C322.405292,577.182213 322.550497,577.263576 322.703716,577.327095 C324.756774,578.223094 325.813271,580.516021 325.160949,582.660051 C325.107439,582.817017 325.072591,582.979742 325.057122,583.144865 L325.057122,583.144865 C325.007317,584.112093 325.590952,584.999659 326.49839,585.336683 C327.405829,585.673706 328.426879,585.382121 329.019841,584.616622 L329.019841,584.616622 C329.117308,584.482355 329.198623,584.337063 329.262104,584.183753 C330.157568,582.129468 332.449125,581.07234 334.591875,581.725052 C334.748748,581.778593 334.911376,581.813463 335.0764,581.828941 L335.0764,581.828941 C336.04305,581.878775 336.930087,581.294792 337.266909,580.386811 C337.603731,579.478831 337.31232,578.457171 336.547278,577.863854 L336.547278,577.863854 C336.413091,577.766329 336.267886,577.684965 336.114667,577.621447 L336.114667,577.621447 Z" id="Path" fill="#FDD835"></path>
                <path d="M14.7017669,788.186627 C12.6487092,787.290628 11.5922119,784.997701 12.2445346,782.853671 C12.2980437,782.696705 12.3328926,782.533979 12.3483613,782.368857 L12.3483613,782.368857 C12.3981662,781.401629 11.8145312,780.514062 10.9070929,780.177039 C9.99965451,779.840016 8.97860462,780.131601 8.38564173,780.897099 L8.38564173,780.897099 C8.28817522,781.031367 8.20686043,781.176659 8.1433794,781.329969 C7.24791531,783.384254 4.95635789,784.441382 2.81360804,783.78867 C2.65673555,783.735129 2.49410736,783.700259 2.32908337,783.684781 L2.32908337,783.684781 C1.36243297,783.634946 0.475396623,784.21893 0.138574522,785.12691 C-0.198247579,786.034891 0.0931633917,787.056551 0.858204908,787.649868 L0.858204908,787.649868 C0.992392145,787.747393 1.13759711,787.828756 1.29081622,787.892275 C3.34387392,788.788274 4.40037117,791.081201 3.74804847,793.225231 C3.69453937,793.382197 3.65969047,793.544923 3.64422175,793.710045 L3.64422175,793.710045 C3.59441691,794.677273 4.17805185,795.564839 5.08549022,795.901863 C5.99292859,796.238886 7.01397848,795.947301 7.60694137,795.181802 L7.60694137,795.181802 C7.70440789,795.047535 7.78572267,794.902243 7.8492037,794.748933 C8.74466779,792.694648 11.0362252,791.63752 13.1789751,792.290232 C13.3358475,792.343773 13.4984757,792.378643 13.6634997,792.394121 L13.6634997,792.394121 C14.6301501,792.443956 15.5171865,791.859972 15.8540086,790.951991 C16.1908307,790.044011 15.8994197,789.022351 15.1343782,788.429034 L15.1343782,788.429034 C15.000191,788.331509 14.854986,788.250146 14.7017669,788.186627 Z" id="Path" fill="#FDD835"></path>
                <ellipse id="Oval" fill="#F55F44" cx="329.954282" cy="383.089763" rx="7.19865223" ry="7.20295329"></ellipse>
                <ellipse id="Oval" fill="#F55F44" cx="931.370527" cy="7.20295329" rx="7.19865223" ry="7.20295329"></ellipse>
                <ellipse id="Oval" fill="#F55F44" cx="235.731538" cy="97.2398694" rx="7.19865223" ry="7.20295329"></ellipse>
                <ellipse id="Oval" fill="#F55F44" cx="15.9649919" cy="509.331909" rx="7.19865223" ry="7.20295329"></ellipse>
                <ellipse id="Oval" fill="#F55F44" cx="1349.53262" cy="350.260919" rx="7.19865223" ry="7.20295329"></ellipse>
                <ellipse id="Oval" fill="#4D8AF0" cx="1429.92911" cy="585.291899" rx="7.19865223" ry="7.20295329"></ellipse>
                <ellipse id="Oval" fill="#47E6B1" cx="103.56013" cy="765.123324" rx="7.19865223" ry="7.20295329"></ellipse>
                <ellipse id="Oval" fill="#47E6B1" cx="111.537483" cy="376.042643" rx="7.19865223" ry="7.20295329"></ellipse>
                <ellipse id="Oval" fill="#47E6B1" cx="41.2987103" cy="204.141393" rx="7.19865223" ry="7.20295329"></ellipse>
            </g>
            <g id="Group-2-Copy" transform="translate(1218.000000, 523.500000) scale(-1, 1) translate(-1218.000000, -523.500000) translate(499.000000, 48.000000)">
                <path d="M1176.26314,153.668775 C1174.21008,152.772776 1173.15358,150.479849 1173.80591,148.335819 C1173.85942,148.178853 1173.89426,148.016128 1173.90973,147.851005 L1173.90973,147.851005 C1173.95954,146.883777 1173.3759,145.996211 1172.46846,145.659188 C1171.56103,145.322164 1170.53998,145.613749 1169.94701,146.379248 L1169.94701,146.379248 C1169.84955,146.513515 1169.76823,146.658807 1169.70475,146.812118 C1168.80929,148.866402 1166.51773,149.923531 1164.37498,149.270818 C1164.21811,149.217277 1164.05548,149.182407 1163.89046,149.166929 L1163.89046,149.166929 C1162.9238,149.117095 1162.03677,149.701078 1161.69995,150.609059 C1161.36312,151.517039 1161.65454,152.538699 1162.41958,153.132017 L1162.41958,153.132017 C1162.55376,153.229541 1162.69897,153.310905 1162.85219,153.374424 C1164.90525,154.270423 1165.96174,156.563349 1165.30942,158.707379 C1165.25591,158.864346 1165.22106,159.027071 1165.20559,159.192194 L1165.20559,159.192194 C1165.15579,160.159422 1165.73942,161.046988 1166.64686,161.384011 C1167.5543,161.721035 1168.57535,161.42945 1169.16831,160.663951 L1169.16831,160.663951 C1169.26578,160.529683 1169.34709,160.384392 1169.41058,160.231081 C1170.30604,158.176797 1172.5976,157.119668 1174.74035,157.772381 C1174.89722,157.825922 1175.05985,157.860792 1175.22487,157.876269 L1175.22487,157.876269 C1176.19152,157.926104 1177.07856,157.34212 1177.41538,156.43414 C1177.7522,155.526159 1177.46079,154.504499 1176.69575,153.911182 L1176.69575,153.911182 C1176.56156,153.813657 1176.41636,153.732294 1176.26314,153.668775 L1176.26314,153.668775 Z" id="Path" fill="#4D8AF0"></path>
                <path d="M793.834739,510.353481 C791.781682,509.457482 790.725184,507.164556 791.377507,505.020525 C791.431016,504.863559 791.465865,504.700834 791.481334,504.535711 L791.481334,504.535711 C791.531139,503.568483 790.947504,502.680917 790.040065,502.343894 C789.132627,502.00687 788.111577,502.298455 787.518614,503.063954 L787.518614,503.063954 C787.421148,503.198221 787.339833,503.343513 787.276352,503.496824 C786.380888,505.551108 784.08933,506.608237 781.94658,505.955524 C781.789708,505.901983 781.62708,505.867113 781.462056,505.851635 L781.462056,505.851635 C780.495405,505.801801 779.608369,506.385785 779.271547,507.293765 C778.934725,508.201746 779.226136,509.223406 779.991177,509.816723 L779.991177,509.816723 C780.125364,509.914248 780.270569,509.995611 780.423789,510.05913 C782.476846,510.955129 783.533343,513.248056 782.881021,515.392086 C782.827512,515.549052 782.792663,515.711777 782.777194,515.8769 L782.777194,515.8769 C782.727389,516.844128 783.311024,517.731694 784.218463,518.068717 C785.125901,518.405741 786.146951,518.114156 786.739914,517.348657 L786.739914,517.348657 C786.83738,517.21439 786.918695,517.069098 786.982176,516.915787 C787.87764,514.861503 790.169198,513.804374 792.311947,514.457087 C792.46882,514.510628 792.631448,514.545498 792.796472,514.560976 L792.796472,514.560976 C793.763122,514.61081 794.650159,514.026827 794.986981,513.118846 C795.323803,512.210865 795.032392,511.189206 794.267351,510.595888 L794.267351,510.595888 C794.133163,510.498364 793.987958,510.417 793.834739,510.353481 L793.834739,510.353481 Z" id="Path" fill="#4D8AF0"></path>
                <ellipse id="Oval" fill="#F55F44" cx="931.370527" cy="7.20295329" rx="7.19865223" ry="7.20295329"></ellipse>
                <ellipse id="Oval" fill="#F55F44" cx="1349.53262" cy="350.260919" rx="7.19865223" ry="7.20295329"></ellipse>
                <ellipse id="Oval" fill="#4D8AF0" cx="1429.92911" cy="585.291899" rx="7.19865223" ry="7.20295329"></ellipse>
            </g>
        </g>
        <g id="undraw_snowman_1_a2ch" transform="translate(1172.000000, 558.000000)" fill-rule="nonzero">
            <path d="M198.548763,146.899712 C199.541466,142.049159 200.040177,137.110578 200.03726,132.159564 C200.03726,103.028835 183.314079,81.7768476 158.614882,70.0662946 C160.789344,65.5353458 161.650162,62.6312363 161.650162,57.2711821 C161.650162,38.1434974 144.841796,23 125.711015,23 C106.580234,23 91.8566609,38.1345341 91.8566609,57.2711821 C91.8566609,62.6491629 92.3050036,60.4531541 93.8159183,70.5727211 C69.1167214,82.2787925 53.97619,103.01539 53.97619,132.159564 C53.97619,133.15449 54.0030905,134.140453 54.0389579,135.121935 C53.8865293,135.646294 53.9149536,136.206662 54.1196596,136.712921 C54.3282481,140.135867 54.7777023,143.539882 55.4646876,146.899712 C36.0693843,167.654236 24,196.784965 24,229.05285 C24,292.118637 70.1120421,341 126.997758,341 C183.883474,341 230,292.096229 230,229.05285 C230,196.784965 217.939583,167.654236 198.548763,146.899712 Z" id="Path" fill="url(#linearGradient-1)"></path>
            <path d="M195.203355,148.688843 C201.603309,117.394787 185.85719,85.7654524 157.059168,72.0683622 C163.66595,58.2554982 159.874089,41.7003684 147.91776,32.1573008 C135.961432,22.6142331 119.011684,22.6142331 107.055355,32.1573008 C95.0990267,41.7003684 91.3071659,58.2554982 97.9139476,72.0683622 C73.7582882,83.53091 58.3583727,107.918371 58.3628217,134.701923 C58.3628217,135.644861 58.3852252,136.578819 58.4255515,137.512777 C58.2813384,138.010002 58.3081668,138.54138 58.5017233,139.021479 C58.6989482,142.26987 59.1241725,145.500313 59.7742417,148.688843 C41.4033778,168.396255 30,196.02884 30,226.633927 C30,286.483574 73.6509651,335 127.5,335 C181.349035,335 225,286.483574 225,226.633927 C224.977597,196.02884 213.556296,168.396255 195.203355,148.688843 Z" id="Path" fill="#FFFFFF"></path>
            <circle id="Oval" fill="#263238" cx="113" cy="47" r="3"></circle>
            <circle id="Oval" fill="#263238" cx="138" cy="47" r="3"></circle>
            <path d="M98,72 C98,72 120.764167,97.9020506 123.866136,115 L134.754318,110.336109 L119.23553,82.3617154 C119.23553,82.3617154 144.583182,83.9148538 157,72 L98,72 Z" id="Path" fill="#FFE3B0"></path>
            <path d="M123,57.1770687 L123,85.8229313 C123,87.0252925 123.883488,88 124.973327,88 L124.973327,88 C126.003501,88.0011882 126.861166,87.1279094 126.942551,85.9949242 L128.993826,57.3490615 C129.037342,56.7432796 128.849382,56.1450024 128.47539,55.6988717 C128.101397,55.2527411 127.575413,54.9993652 127.024602,55 L124.973327,55 C123.883488,55 123,55.9747075 123,57.1770687 L123,57.1770687 Z" id="Path" fill="#FF6E40"></path>
            <path d="M149.541935,25.9400542 L149.541935,8.34148107 C149.540533,5.68506559 148.214852,3.20755917 146.014449,1.74911728 C143.814045,0.290675384 141.034134,0.0469677282 138.617419,1.10063883 C131.265161,4.29043717 124.78,3.10109807 119.843871,0.781658993 C117.538469,-0.336363063 114.837764,-0.25077752 112.606436,1.01101382 C110.375108,2.27280515 108.893076,4.55251207 108.634839,7.12024399 L106.634194,25.9446111 L100,25.9446111 L100,39 L156,39 L156,25.9400542 L149.541935,25.9400542 Z" id="Path" fill="url(#linearGradient-2)"></path>
            <rect id="Rectangle" fill="#FFE3B0" x="102" y="27" width="53" height="10"></rect>
            <path d="M120.773167,2.69485958 C125.989672,5.28431583 132.064774,5.38881249 137.364223,2.98023914 C139.498082,2.04849655 141.948897,2.2698164 143.888347,3.56939763 C145.827798,4.86897886 146.996703,7.07315007 147,9.43695162 L147,28 L109,28 L110.870217,8.34894206 C111.09872,6.06010421 112.407861,4.02798813 114.378856,2.90264981 C116.349851,1.77731149 118.735691,1.69978097 120.773167,2.69485958 L120.773167,2.69485958 Z" id="Path" fill="#FFE3B0"></path>
            <circle id="Oval" fill="#263238" cx="126.5" cy="131.5" r="3.5"></circle>
            <circle id="Oval" fill="#263238" cx="126.5" cy="143.5" r="3.5"></circle>
            <circle id="Oval" fill="#263238" cx="126.5" cy="155.5" r="3.5"></circle>
            <circle id="Oval" fill="#263238" cx="126.5" cy="166.5" r="3.5"></circle>
            <path d="M69.1182283,100.598455 C49.6998495,94.085712 33.7732302,79.9732366 25.0007866,61.5062724 C35.5327423,61.0582758 43.6259551,53.0391368 47.6950177,43.7252876 C53.0036624,31.5263404 54.5576311,17.3293283 57.279322,4.40462663 C57.9979202,0.986412627 52.7386792,-0.474056266 52.020081,2.95759764 C49.6981104,14.0096736 47.9779658,25.4201468 44.6634313,36.2258246 C41.7126873,45.8577514 35.038706,56.2423124 23.7342571,56.0855136 C23.390931,56.0807702 23.0497363,56.1400255 22.7282196,56.2602323 C18.0600774,44.314044 16.4845665,31.3872225 18.1471557,18.6733181 C18.5962796,15.2058245 13.1394241,15.2506241 12.6903002,18.6733181 C11.585238,27.1368625 11.8521327,35.7226132 13.4807583,44.1016047 C9.18286385,43.6800122 4.86956379,44.7358727 1.25560543,47.094222 C-1.6771737,49.0026875 1.06248215,53.7156116 4.008735,51.7937062 C7.16236547,49.650633 11.0727647,48.9257744 14.7877088,49.7956414 C21.9284338,76.1128301 41.7657134,97.138926 67.667558,105.844495 C71.0090399,106.964487 72.4282715,101.705007 69.1182283,100.598455 Z" id="Path" fill="url(#linearGradient-3)"></path>
            <path d="M69.2252555,98.8540696 C50.9084631,92.6514926 35.8854688,79.2117168 27.6108184,61.6252259 C37.5419933,61.1753305 45.1813585,53.5586015 49.018911,44.6911633 C54.0448092,33.0748643 55.4922679,19.5735036 58.0610603,7.24187085 C58.740115,3.98912716 53.7767613,2.59445145 53.0977066,5.86519095 C50.9086487,16.3882442 49.278024,27.2577169 46.1597334,37.5468245 C43.3765026,46.7201915 37.0818443,56.6088923 26.4180052,56.442431 C26.0932839,56.4376897 25.770546,56.4941473 25.4664352,56.6088923 C21.0636029,45.2293932 19.5793792,32.9160338 21.1508639,20.8062169 C21.5976104,17.5039848 16.4287533,17.5444753 16.0043441,20.8062169 C14.9482439,28.8755599 15.1895993,37.0635303 16.7191385,45.0555786 C12.6636646,44.6540614 8.59372609,45.6604628 5.18414373,47.9079154 C2.41878285,49.707497 5.00097766,54.2064509 7.77974094,52.3843745 C10.7556607,50.3418934 14.4463727,49.6514344 17.9521589,50.481317 C24.6937628,75.5464461 43.414377,95.5686477 67.8537438,103.852407 C71.0077741,104.91866 72.3480136,99.893328 69.2252555,98.8540696 Z" id="Path" fill="#795548"></path>
            <path d="M251.742301,46.0434597 C248.130053,43.683566 243.818667,42.6258845 239.522015,43.0455447 C241.150295,34.6566714 241.41557,26.0609183 240.307668,17.5879136 C239.858723,14.1598045 234.395061,14.1149926 234.852985,17.5879136 C239.548951,53.4374205 218.354252,88.0590819 183.884246,99.5936608 C180.571031,100.700514 181.989698,105.961429 185.334339,104.845614 C211.236684,96.1296579 231.071493,75.0839787 238.206605,48.7456163 C241.920084,47.8760759 245.828698,48.6010898 248.981288,50.7442263 C251.939837,52.6666561 254.678402,47.952446 251.742301,46.0434597 Z" id="Path" fill="url(#linearGradient-4)"></path>
            <path d="M247.812743,47.6660801 C244.402345,45.4090899 240.331433,44.3984176 236.274989,44.8016387 C237.811408,36.7844794 238.061868,28.5695796 237.016766,20.4719596 C236.592255,17.196376 231.440036,17.1557136 231.869015,20.4719596 C236.3018,54.7503766 216.305112,87.8224753 183.778656,98.8329541 C180.650682,99.8901769 181.991242,104.918762 185.146027,103.852503 C209.586542,95.5267952 228.304555,75.4166359 235.041674,50.2458845 C238.548299,49.4124801 242.239893,50.1058692 245.216525,52.1570181 C248.000421,53.9958629 250.583234,49.4913708 247.812743,47.6660801 Z" id="Path" fill="#795548"></path>
        </g>
        <g id="undraw_Artificial_intelligence_oyxx-(1)" transform="translate(139.000000, 673.000000)" fill-rule="nonzero">
            <rect id="Rectangle" fill="#38D39F" x="27" y="47" width="97" height="46" rx="12.9697"></rect>
            <rect id="Rectangle" fill="#000000" opacity="0.1" x="36" y="86" width="83" height="1"></rect>
            <rect id="Rectangle" fill="#000000" opacity="0.3" x="36" y="55" width="83" height="31"></rect>
            <circle id="Oval" fill="#000000" opacity="0.1" cx="55.5" cy="71.5" r="11.5"></circle>
            <circle id="Oval" fill="#000000" opacity="0.1" cx="98.5" cy="71.5" r="11.5"></circle>
            <rect id="Rectangle" fill="#38D39F" x="68" y="93" width="17" height="10"></rect>
            <rect id="Rectangle" fill="#38D39F" x="42" y="99" width="71" height="58"></rect>
            <rect id="Rectangle" fill="#38D39F" x="41" y="169" width="73" height="7"></rect>
            <polygon id="Path" fill="#38D39F" points="51 193.033319 51 201.63349 51 214.533532 51 221.700128 51 226 64 226 64 221.700128 64 214.533532 64 201.63349 64 193.033319 64 183 51 183"></polygon>
            <polygon id="Path" fill="#38D39F" points="91 183 91 193.033319 91 201.63349 91 214.533532 91 221.700128 91 226 104 226 104 221.700128 104 214.533532 104 201.63349 104 193.033319 104 183"></polygon>
            <path d="M32,113 L32,126.043458 C28.4475301,126.651908 25.1374196,128.216603 22.4392102,130.562861 C19.9370687,132.835225 17.9913421,135.63303 16.7476048,138.746951 C15.0837172,142.699811 14.2748753,147.089731 13.9447384,151.240046 C13.5376347,156.837949 13.8046908,162.463396 14.7403816,168 L0.359566826,168 C-0.251201486,160.204378 -0.0564082871,153.51592 0.73591182,147.772793 C1.62398404,141.298037 3.26808227,136.027554 5.35125536,131.741234 C9.51759725,123.171871 15.4435832,118.522986 20.6498457,115.997823 C26.8333504,113 32,113 32,113 Z" id="Path" fill="#38D39F"></path>
            <rect id="Rectangle" fill="#000000" opacity="0.3" x="51" y="182" width="13" height="10"></rect>
            <rect id="Rectangle" fill="#000000" opacity="0.3" x="51" y="202" width="13" height="13"></rect>
            <rect id="Rectangle" fill="#000000" opacity="0.3" x="51" y="222" width="13" height="4"></rect>
            <rect id="Rectangle" fill="#000000" opacity="0.3" x="91" y="182" width="13" height="10"></rect>
            <rect id="Rectangle" fill="#000000" opacity="0.3" x="91" y="202" width="13" height="13"></rect>
            <rect id="Rectangle" fill="#000000" opacity="0.3" x="91" y="222" width="13" height="4"></rect>
            <path d="M33,114 L33,126.625436 C29.2441357,127.214387 25.744507,128.728936 22.8918134,131 L21,116.901768 C27.5375373,114 33,114 33,114 Z" id="Path" fill="#000000" opacity="0.3"></path>
            <path d="M17,139.185788 C15.3373279,143.24025 14.5290769,147.743007 14.1991811,152 L1,148.443626 C1.88742345,141.802447 3.53032058,136.396493 5.61197181,132 L17,139.185788 Z" id="Path" fill="#000000" opacity="0.3"></path>
            <path d="M122,113 L122,126.043458 C125.552471,126.651908 128.862582,128.216603 131.560793,130.562861 C134.062933,132.835225 136.008658,135.63303 137.252391,138.746951 C138.916283,142.699811 139.725126,147.089731 140.055263,151.240046 C140.462364,156.837949 140.195308,162.463395 139.259619,168 L153.640442,168 C154.251189,160.204378 154.056418,153.51592 153.264097,147.772793 C152.376025,141.298037 150.731922,136.027554 148.648752,131.741234 C144.482409,123.171871 138.556422,118.522986 133.350158,115.997823 C127.166651,113 122,113 122,113 Z" id="Path" fill="#38D39F"></path>
            <path d="M121,114 L121,126.625436 C124.755864,127.214387 128.255493,128.728936 131.108187,131 L133,116.901768 C126.462463,114 121,114 121,114 Z" id="Path" fill="#000000" opacity="0.3"></path>
            <path d="M137,139.185788 C138.662676,143.24025 139.470927,147.743007 139.800822,152 L153,148.443626 C152.112577,141.802447 150.469676,136.396493 148.388029,132 L137,139.185788 Z" id="Path" fill="#000000" opacity="0.3"></path>
            <rect id="Rectangle" fill="#000000" opacity="0.1" x="68" y="93" width="17" height="1"></rect>
            <path d="M114,110 L114,134 C113.356587,133.074707 112.999393,131.859605 113,130.598209 L113,113.398497 C112.999409,112.138085 113.356645,110.924021 114,110 L114,110 Z" id="Path" fill="#000000" opacity="0.1"></path>
            <path d="M41,112.034061 L41,129.965935 C40.9359053,131.09971 40.583072,132.170229 40,133 L40,109 C40.5830713,109.82977 40.9359046,110.900287 41,112.034061 Z" id="Path" fill="#000000" opacity="0.1"></path>
            <rect id="Rectangle" fill="#000000" opacity="0.1" x="45" y="157" width="64" height="1"></rect>
            <rect id="Rectangle" fill="#000000" opacity="0.1" x="43" y="176" width="31" height="1"></rect>
            <rect id="Rectangle" fill="#000000" opacity="0.1" x="78" y="176" width="31" height="1"></rect>
            <rect id="Rectangle" fill="#38D39F" x="47" y="5" width="4" height="43"></rect>
            <rect id="Rectangle" fill="#38D39F" x="104" y="5" width="4" height="43"></rect>
            <circle id="Oval" fill="#000000" opacity="0.1" cx="50" cy="6" r="6"></circle>
            <circle id="Oval" fill="#38D39F" cx="50" cy="6" r="6"></circle>
            <circle id="Oval" fill="#000000" opacity="0.1" cx="105" cy="6" r="6"></circle>
            <circle id="Oval" fill="#38D39F" cx="105" cy="6" r="6"></circle>
        </g>
        <g id="undraw_teddy_bear_hns1" transform="translate(218.000000, 732.000000)" fill-rule="nonzero">
            <circle id="Oval" fill="#634133" cx="61.5" cy="17.5" r="17.5"></circle>
            <circle id="Oval" fill="#634133" cx="112.5" cy="17.5" r="17.5"></circle>
            <ellipse id="Oval" fill="#000000" opacity="0.1" cx="108" cy="20.5" rx="13" ry="15.5"></ellipse>
            <ellipse id="Oval" fill="#000000" opacity="0.1" cx="66" cy="20.5" rx="13" ry="15.5"></ellipse>
            <path d="M149.937387,89.0689779 C149.432668,94.5838018 145.053011,99.9671247 139.56623,100 C137.124042,100 134.816174,99.0342894 132.646698,97.9124213 C130.766213,96.9384919 128.91015,95.8125145 127.546596,94.18108 C127.34715,93.9427344 127.163986,93.7002794 126.988963,93.4496056 C124.815416,90.3346752 124.359541,86.200612 122.466845,82.847336 C119.068134,76.8188362 111.806696,74.3778486 105.123242,72.7710705 C98.0755385,71.0740812 90.9438933,69.7544895 83.7581693,68.8178212 C78.8737939,68.1767537 73.9120824,67.7165002 69.0195663,68.3246924 C58.6077059,69.6191555 49.2052831,75.6517647 38.8381961,77.0325254 C38.4881492,77.0777289 38.1381023,77.1188229 37.7839851,77.1558076 C34.5277348,77.4845601 31.226711,77.3201839 27.9623201,77.62428 C22.5284523,78.129737 17.1800612,79.937876 11.7339825,79.56392 C6.28790384,79.189964 0.40630169,75.6065612 0.0196219641,70.1122843 C-0.253089,66.2412231 2.35191126,62.6208357 5.64886471,60.6277734 C8.94581816,58.6347111 12.8411076,57.956659 16.6387096,57.4018891 C26.7208746,55.926612 37.0716803,54.9896673 46.3519938,50.7816347 C49.6733691,49.2775918 52.8237913,47.3667177 56.2550651,46.1421144 C57.781545,45.5882639 59.3679282,45.2199327 60.9806983,45.0449028 C62.9993341,44.8111771 65.0440046,45.0748559 66.9396364,45.8133619 L62.0552609,47.6872514 L109.747117,44.288772 L111.627602,44.157271 C113.886625,43.9970041 116.186352,43.8367372 118.396532,44.3421943 C122.198204,45.2133885 125.316064,47.9666911 127.721619,51.0734026 C130.127174,54.1801142 131.922182,57.7100946 134.177135,60.9359789 C137.347909,65.4563264 141.365308,69.3027312 144.617488,73.7573282 C147.869668,78.2119251 150.438035,83.5582634 149.937387,89.0689779 Z" id="Path" fill="#634133"></path>
            <path d="M126.998511,81.675195 C127.021156,85.4616569 126.785514,89.2452836 126.293209,93 C124.116149,89.925429 123.659538,85.8449298 121.763784,82.5351014 C118.359581,76.5847114 111.086409,74.175351 104.392155,72.5893916 C97.3330636,70.9143897 90.1898944,69.6118956 82.9925591,68.6873635 C78.100291,68.0546022 73.1305619,67.600312 68.2301401,68.200624 C57.8014552,69.4783151 48.3838391,75.4327613 38,76.7956318 C40.2585971,60.749454 48.4164542,50.4711388 60.1986666,45.2184087 C66.5953071,42.3790952 74.0600929,41 82.2505651,41 C92.3041761,41 101.579101,41.4056162 109.052041,44.4720749 C119.945491,48.9338534 126.998511,59.025585 126.998511,81.675195 Z" id="Path" fill="#000000" opacity="0.1"></path>
            <path d="M125,84.0052889 C125,92.5619932 123.976231,99.2518538 122.10674,104.475776 C117.517988,117.284511 107.867043,121.297617 95.8569777,122.504384 C91.8104597,122.909339 87.5171042,122.998429 83.0497484,122.998429 C77.4189641,123.039911 71.8122186,122.25959 66.40642,120.682085 C56.3912881,117.665169 48.1728101,111.627286 43.9927571,102.208027 C41.7388466,97.1379874 40.6584263,91.0920057 41.0954502,84.0052889 C42.7707086,56.970477 59.8793866,45 83.0497484,45 C106.22011,45 125,47.4013846 125,84.0052889 Z" id="Path" fill="#634133"></path>
            <circle id="Oval" fill="#000000" opacity="0.1" cx="88" cy="37" r="33"></circle>
            <circle id="Oval" fill="#634133" cx="88" cy="34" r="33"></circle>
            <circle id="Oval" fill="#FBBEBE" cx="83" cy="23" r="2"></circle>
            <circle id="Oval" fill="#FBBEBE" cx="91" cy="23" r="2"></circle>
            <ellipse id="Oval" fill="#000000" opacity="0.1" cx="88" cy="37" rx="17" ry="11"></ellipse>
            <ellipse id="Oval" fill="#392A16" cx="88.5" cy="37.5" rx="16.5" ry="10.5"></ellipse>
            <path d="M66,121 C56.1697057,117.859852 48.1029067,111.575342 44,101.771338 C45.3872943,101.261105 46.8451647,101.000404 48.313414,101 C56.6979599,101 63.7718,109.442571 66,121 Z" id="Path" fill="#000000" opacity="0.1"></path>
            <path d="M67,131.00205 C67,145.911182 58.4983021,158 48.0104175,158 C40.905193,158 34.7132049,152.457754 31.4574969,144.242769 C29.8137776,140.023178 28.9801512,135.531036 29,131.00205 C29,116.088818 37.5061519,104 47.9940365,104 C57.4581136,104 65.3086699,113.838306 66.7460957,126.734685 C66.9121525,128.151112 66.9969264,129.575906 67,131.00205 L67,131.00205 Z" id="Path" fill="#634133"></path>
            <path d="M66.9991393,131.145308 C66.9991393,145.975329 58.627413,158 48.2998642,158 C41.3032624,158 35.2059357,152.487163 32,144.315769 C32.5081106,133.579601 43.2348891,125.000452 56.3973722,125.000452 C59.944869,124.980527 63.4658646,125.619044 66.7854103,126.884277 C66.9374192,128.2993 67.0087801,129.721995 66.9991393,131.145308 L66.9991393,131.145308 Z" id="Path" fill="#000000" opacity="0.1"></path>
            <ellipse id="Oval" fill="#392A16" cx="56.5" cy="144.5" rx="24.5" ry="20.5"></ellipse>
            <ellipse id="Oval" fill="#634133" cx="58.5" cy="146" rx="22.5" ry="19"></ellipse>
            <ellipse id="Oval" fill="#000000" opacity="0.1" cx="67.5" cy="139.5" rx="3.5" ry="4.5"></ellipse>
            <ellipse id="Oval" fill="#392A16" cx="67.5" cy="140" rx="3.5" ry="4"></ellipse>
            <circle id="Oval" fill="#000000" opacity="0.1" cx="55" cy="143" r="4"></circle>
            <circle id="Oval" fill="#392A16" cx="55.5" cy="142.5" r="3.5"></circle>
            <ellipse id="Oval" fill="#000000" opacity="0.1" cx="50" cy="154.5" rx="4" ry="3.5"></ellipse>
            <circle id="Oval" fill="#392A16" cx="49.5" cy="154.5" r="3.5"></circle>
            <ellipse id="Oval" fill="#000000" opacity="0.1" transform="translate(65.771605, 156.895226) rotate(-41.010000) translate(-65.771605, -156.895226) " cx="65.771605" cy="156.895226" rx="10.1808553" ry="5.32726381"></ellipse>
            <ellipse id="Oval" fill="#392A16" transform="translate(65.771605, 156.895226) rotate(-41.010000) translate(-65.771605, -156.895226) " cx="65.771605" cy="156.895226" rx="9.51653206" ry="4.976464"></ellipse>
            <path d="M121,104.585188 C116.45491,117.668308 106.895792,121.767382 95,123 C96.9238477,110.963364 104.294589,102 113.092184,102 C115.919628,102.024218 118.674748,102.924909 121,104.585188 Z" id="Path" fill="#000000" opacity="0.1"></path>
            <path d="M133.999096,131.00205 C134.03423,135.934217 133.04499,140.81992 131.094058,145.349579 C127.734211,152.94967 121.780727,158 114.999573,158 C104.506198,158 96,145.911182 96,131.00205 C95.9977936,129.598375 96.0730267,128.195647 96.2254048,126.800273 C97.6471936,113.883398 105.510054,104 114.999573,104 C125.492947,104 133.999096,116.088818 133.999096,131.00205 Z" id="Path" fill="#634133"></path>
            <path d="M131,145.25785 L131,145.319486 C127.744897,152.937656 121.977012,158 115.407261,158 C105.241017,158 97,145.882425 97,130.937826 C96.9978624,129.530813 97.0707501,128.124748 97.2183778,126.726055 C100.345551,125.569953 103.643232,124.985975 106.96384,125 C120.23831,125 131,134.060701 131,145.25785 Z" id="Path" fill="#000000" opacity="0.1"></path>
            <ellipse id="Oval" fill="#392A16" cx="105.5" cy="144.5" rx="24.5" ry="20.5"></ellipse>
            <ellipse id="Oval" fill="#634133" cx="104" cy="146" rx="22" ry="19"></ellipse>
            <ellipse id="Oval" fill="#000000" opacity="0.1" cx="96" cy="139.5" rx="4" ry="4.5"></ellipse>
            <ellipse id="Oval" fill="#392A16" cx="96.5" cy="140" rx="3.5" ry="4"></ellipse>
            <circle id="Oval" fill="#000000" opacity="0.1" cx="109" cy="143" r="4"></circle>
            <circle id="Oval" fill="#392A16" cx="108.5" cy="142.5" r="3.5"></circle>
            <ellipse id="Oval" fill="#000000" opacity="0.1" cx="114" cy="154.5" rx="4" ry="3.5"></ellipse>
            <circle id="Oval" fill="#392A16" cx="113.5" cy="154.5" r="3.5"></circle>
            <ellipse id="Oval" fill="#000000" opacity="0.1" transform="translate(97.547756, 156.950463) rotate(-48.990000) translate(-97.547756, -156.950463) " cx="97.5477555" cy="156.950463" rx="5.32726381" ry="10.1808553"></ellipse>
            <ellipse id="Oval" fill="#392A16" transform="translate(97.547756, 156.950463) rotate(-48.990000) translate(-97.547756, -156.950463) " cx="97.5477555" cy="156.950463" rx="4.976464" ry="9.51653206"></ellipse>
        </g>
        <g id="cat" transform="translate(139.000000, 799.000000)">
            <rect id="Rectangle" fill="#F9D075" fill-rule="nonzero" x="25.3" y="38.521884" width="65.55" height="89.95" rx="25"></rect>
            <path d="M24.09,27.091884 C24.09,27.091884 16.65,13.601884 20.3,0.691883997 C20.3,0.691883997 36.02,-3.518116 46.69,8.831884 L24.09,27.091884 Z" id="Path" fill="#F9D075" fill-rule="nonzero"></path>
            <path d="M26.38,23.621884 C26.38,23.621884 20.85,13.621884 23.56,3.981884 C23.56,3.981884 35.25,0.851883997 43.19,10.041884 L26.38,23.621884 Z" id="Path" fill="#FFE9A1" fill-rule="nonzero"></path>
            <path d="M93.97,23.621884 C93.97,23.621884 99.5,13.621884 96.79,3.981884 C96.79,3.981884 85.1,0.851883997 77.16,10.041884 L93.97,23.621884 Z" id="Path" fill="#FFE9A1" fill-rule="nonzero"></path>
            <path d="M96.25,27.091884 C96.25,27.091884 103.69,13.601884 100.04,0.691883997 C100.04,0.691883997 84.32,-3.518116 73.65,8.831884 L96.25,27.091884 Z" id="Path" fill="#F9D075" fill-rule="nonzero"></path>
            <path d="M93.97,23.621884 C93.97,23.621884 99.5,13.621884 96.79,3.981884 C96.79,3.981884 85.1,0.851883997 77.16,10.041884 L93.97,23.621884 Z" id="Path" fill="#FFE9A1" fill-rule="nonzero"></path>
            <path d="M100.03,43.331884 C100.03,44.3985507 99.9833333,45.4585507 99.89,46.511884 C98.2,66.111884 81.06,81.511884 60.17,81.511884 C41.47,81.511884 25.77,69.171884 21.47,52.511884 C20.6981176,49.509576 20.3083692,46.421828 20.3099949,43.321884 C20.3099949,22.241884 38.16,5.141884 60.17,5.141884 C82.18,5.141884 100.03,22.271884 100.03,43.331884 Z" id="Path" fill="#F9D075" fill-rule="nonzero"></path>
            <path d="M26.21,61.601884 L23.21,55.141884 L10.81,55.141884 L17.81,61.321884 L12.76,63.001884 C12.76,63.001884 54.58,107.911884 105.39,63.001884 L101.46,61.601884 L107.64,56.271884 L103.09,55.141884 L104.77,51.771884 L97.99,52.051884 L90.17,66.641884 L64.09,78.161884 L26.21,61.601884 Z" id="Path" fill="#FFE9A1" fill-rule="nonzero"></path>
            <circle id="Oval" fill="#2B1F0E" fill-rule="nonzero" cx="74.49" cy="47.281884" r="3.65"></circle>
            <circle id="Oval" fill="#2B1F0E" fill-rule="nonzero" cx="44.74" cy="47.281884" r="3.65"></circle>
            <path d="M99.9,46.531884 C98.21,66.131884 81.07,81.531884 60.18,81.531884 C41.48,81.531884 25.78,69.191884 21.48,52.531884 C23.48,54.351884 25.27,56.991884 26.87,58.711884 C28.0318643,60.0810975 29.3780233,61.2825444 30.87,62.281884 C33.32,63.781884 36.3,64.131884 39.17,64.281884 C41.76,64.381884 44.64,64.221884 46.49,62.401884 C48.34,60.581884 48.55,57.931884 49.61,55.671884 C51.2654284,52.3673997 54.417722,50.0683865 58.07,49.501884 C61.7039882,48.9910845 65.3952686,49.8968982 68.38,52.031884 C69.1884304,52.5604517 69.8877739,53.239426 70.44,54.031884 C71.017134,55.1281851 71.4892381,56.2766369 71.85,57.461884 C74.16,63.061884 81.62,65.311884 87.25,63.071884 C92.88,60.831884 96.61,55.181884 98,49.281884 C98.26,48.111884 98.81,46.651884 99.9,46.531884 Z" id="Path" fill="#FFE9A1" fill-rule="nonzero"></path>
            <path d="M59.61,65.251884 L57.93,66.931884 C58.9052941,67.4066349 60.0447059,67.4066349 61.02,66.931884 L59.61,65.251884 Z" id="Path" fill="#F25F1D" fill-rule="nonzero"></path>
            <path d="M51.61,66.231884 C51.61,66.231884 59.47,69.881884 59.47,60.621884" id="Path" stroke="#2B1F0E" stroke-width="2" stroke-linecap="round"></path>
            <path d="M67.33,66.231884 C67.33,66.231884 59.47,69.881884 59.47,60.621884" id="Path" stroke="#2B1F0E" stroke-width="2" stroke-linecap="round"></path>
            <ellipse id="Oval" fill="#F25F1D" fill-rule="nonzero" cx="59.61" cy="56.821884" rx="3.09" ry="3.93"></ellipse>
            <ellipse id="Oval" fill="#FFE9A1" fill-rule="nonzero" cx="98.98" cy="90.471884" rx="13.14" ry="15.91"></ellipse>
            <ellipse id="Oval" fill="#FFE9A1" fill-rule="nonzero" cx="13.14" cy="86.541884" rx="13.14" ry="15.91"></ellipse>
        </g>
        <g id="undraw_pet_adoption_2qkw" transform="translate(348.000000, 706.000000)" fill-rule="nonzero">
            <path d="M111.015148,19.03994 C110.302451,18.8712401 109.573528,19.2502222 109.310167,19.9263939 C109.046806,20.6025656 109.33036,21.3670581 109.973411,21.7145715 C114.972853,24.4737322 119.370755,28.1836502 122.91378,32.6306205 C139.432914,53.3625297 133.665025,85.093027 110.030845,103.502659 C99.5357818,111.822186 86.4509359,116.292002 73,116.152488 C88.8694725,120.573714 107.600889,117.094869 122.695664,105.336936 C146.329844,86.927304 152.097734,55.1967994 135.578599,34.4648975 C129.373625,26.7433496 120.721753,21.3102871 111.015148,19.03994 L111.015148,19.03994 Z" id="Path" fill="#3F3D56"></path>
            <path d="M122.392573,32.7905075 C139.074778,53.769832 133.249965,85.8790022 109.382462,104.508335 C100.637096,111.411588 90.1091502,115.740124 79,117 C92.2675121,116.921526 105.119819,112.408084 115.475485,104.190626 C139.342988,85.5612935 145.167786,53.4521159 128.485603,32.4727914 C123.753436,26.537334 117.549577,21.9180975 110.478941,19.0654865 L110.369041,19.0385642 C109.650161,18.8721112 108.917752,19.2576661 108.65464,19.9410589 C108.391528,20.6244517 108.678703,21.3953264 109.32685,21.7454982 C114.374671,24.5374498 118.815149,28.2911744 122.392573,32.7905075 Z" id="Path" fill="#38D39F"></path>
            <polygon id="Path" fill="#38D39F" points="50 0 59.5 17 69 34 50 34 31 34 40.5 17"></polygon>
            <polygon id="Path" fill="#38D39F" points="84.9996411 0 94.5001795 17 104 34 84.9996411 34 66 34 75.4998205 17"></polygon>
            <polygon id="Path" fill="#3F3D56" points="48.5003521 9 54.2501761 19.0003535 60 29 48.5003521 29 37 29 42.7498239 19.0003535"></polygon>
            <polygon id="Path" fill="#3F3D56" points="84.5 9 90.25 19.0003535 96 29 84.5 29 73 29 78.75 19.0003535"></polygon>
            <path d="M82.7297248,185.379272 C51.6061032,192.283977 19.8639623,176.638729 6.38327484,147.749198 C-7.09741263,118.859667 1.30314414,84.4831754 26.5883609,65.0665877 C51.8735776,45.6500001 87.2539492,46.4069957 111.685512,66.8873195 C127.097017,79.8061536 136,98.8842104 136,118.994021 C136,150.873939 113.853346,178.474567 82.7297248,185.379272 Z" id="Path" fill="#3F3D56"></path>
            <path d="M111,67.0586298 C105.270104,82.07363 87.7379723,93 67,93 C46.2620204,93 28.7298957,82.0736373 23,67.0586298 C48.4527317,45.6471234 85.5472683,45.6471234 111,67.0586298 Z" id="Path" fill="#000000" opacity="0.1"></path>
            <ellipse id="Oval" fill="#3F3D56" cx="67.5" cy="51.5" rx="45.5" ry="36.5"></ellipse>
            <circle id="Oval" fill="#FFFFFF" cx="45" cy="47" r="9"></circle>
            <circle id="Oval" fill="#FFFFFF" cx="89" cy="47" r="9"></circle>
            <circle id="Oval" fill="#3F3D56" cx="46" cy="46" r="5"></circle>
            <circle id="Oval" fill="#3F3D56" cx="89" cy="46" r="5"></circle>
            <circle id="Oval" fill="#38D39F" cx="57.5" cy="58.5" r="1.5"></circle>
            <path d="M58.2408233,59.0440682 C54.9926955,60.3590128 52.8420624,63.0358138 49.4297702,64.1866122 C45.9529321,65.3545692 42.1308197,65.4178658 38.6077459,64.3658316 C37.9994019,64.1863245 37.7385952,65.041491 38.3436507,65.2200458 C41.8719847,66.2680994 45.6876743,66.2597103 49.2101698,65.1961549 C50.8760175,64.6904064 52.439998,63.9494369 53.8424001,63.0015362 C55.4691763,61.9004106 56.8552764,60.5728798 58.7422292,59.808981 C59.3235275,59.5736554 58.819125,58.8099552 58.2408233,59.0440682 L58.2408233,59.0440682 Z" id="Path" fill="#38D39F"></path>
            <path d="M58.401355,57.0076642 C56.8066248,57.3549301 55.2689046,57.904453 53.829999,58.6412934 C52.1736896,59.3971755 50.3895636,59.8716284 48.559258,60.0429424 C45.0860984,60.3279516 41.6127921,59.4969741 38.7013136,57.6844604 C38.1855291,57.3661696 37.7067613,58.146879 38.2196303,58.4633698 C41.1346781,60.2718686 44.5846669,61.1529757 48.0666358,60.9782379 C49.7563802,60.8956259 51.4207747,60.5545887 52.9950286,59.9684018 C54.8922222,59.2529329 56.6149756,58.2095869 58.6550621,57.8775238 C59.259126,57.779206 59.0030347,56.9097441 58.401355,57.0076782 L58.401355,57.0076642 Z" id="Path" fill="#38D39F"></path>
            <path d="M58.1428633,57.1371846 C55.6095154,59.4925072 54.5568404,62.8944855 51.8696749,65.1738991 C48.9772865,67.6254611 45.2965906,68.9879597 41.4811085,69.0194782 C41.2128076,69.0284217 41,69.2452777 41,69.5097391 C41,69.7742005 41.2128076,69.9910565 41.4811085,70 C45.1747524,69.9734053 48.76022,68.768541 51.700377,66.5659064 C53.0287553,65.5731743 54.1960065,64.3870361 55.1620265,63.0482447 C56.4144595,61.3018087 57.244283,59.3202902 58.846666,57.8304962 C59.313461,57.3964959 58.6087345,56.7040716 58.1428864,57.1371846 L58.1428633,57.1371846 Z" id="Path" fill="#38D39F"></path>
            <circle id="Oval" fill="#38D39F" cx="74.5" cy="58.5" r="1.5"></circle>
            <path d="M74.2579327,59.8087234 C76.1241371,60.5640336 77.5038808,61.8695877 79.1074887,62.9658627 C80.5231807,63.929162 82.1044645,64.681794 83.7899762,65.1945517 C87.3120177,66.2602459 91.128584,66.2686349 94.6564772,65.2184367 C95.2605559,65.0402141 95.0017628,64.1846515 94.3923825,64.3644358 C90.8693734,65.4165339 87.0471437,65.3532511 83.5703839,64.1852612 C80.1577439,63.0332981 78.0081671,60.3589055 74.7593378,59.0440016 C74.1815979,58.8101731 73.6760131,59.573203 74.2579327,59.8087234 L74.2579327,59.8087234 Z" id="Path" fill="#38D39F"></path>
            <path d="M73.3450776,57.8775158 C75.3056623,58.1966368 76.9623696,59.1735419 78.7756325,59.8816151 C80.4175409,60.5184334 82.1612466,60.8891623 83.9335031,60.978229 C87.4154785,61.153006 90.8654823,60.2718959 93.7805148,58.4633617 C94.2928304,58.1472128 93.8151327,57.3658409 93.2988385,57.6844525 C90.3890551,59.5006074 86.9143828,60.3319104 83.4408806,60.0429338 C81.6114325,59.8673331 79.8280788,59.393086 78.1701364,58.6412852 C76.7307209,57.9054973 75.1931538,57.3560296 73.5987775,57.0076565 C72.9980791,56.909883 72.7400464,57.7790237 73.3450776,57.8775019 L73.3450776,57.8775158 Z" id="Path" fill="#38D39F"></path>
            <path d="M73.153391,57.8304775 C74.7541314,59.3187608 75.5843535,61.3044961 76.8380235,63.048247 C77.804711,64.3864952 78.9718681,65.5725449 80.2996664,66.5659228 C83.2398621,68.7684645 86.8252836,69.9733125 90.5188924,70 C90.7871928,69.9910565 91,69.7741996 91,69.5097371 C91,69.2452747 90.7871928,69.0284178 90.5188924,69.0194743 C86.7026328,68.9921186 83.0205365,67.6290935 80.1303458,65.1738796 C77.454378,62.8854478 76.389735,59.4917747 73.8571693,57.1371328 C73.3915222,56.7042 72.6863968,57.3962631 73.153391,57.8304471 L73.153391,57.8304775 Z" id="Path" fill="#38D39F"></path>
            <ellipse id="Oval" fill="#3F3D56" cx="46.5" cy="185.5" rx="12.5" ry="7.5"></ellipse>
            <ellipse id="Oval" fill="#3F3D56" cx="88.5" cy="185.5" rx="12.5" ry="7.5"></ellipse>
            <ellipse id="Oval" fill="#38D39F" cx="65.5" cy="58" rx="10.5" ry="6"></ellipse>
        </g>
        <g id="undraw_loading_frh4" transform="translate(327.000000, 768.000000)">
            <path d="M103.93,27.52 C104.15,25.61 104.47,23.71 104.81,21.81 C106.31,13.58 104.02,5.74 102.81,2.51 L102.81,2.51 C102.46,1.51 102.2,0.94 102.2,0.94 C96.13,-0.71 72.2,17.83 63.52,24.82 C60.52,24.82 57.22,24.95 53.65,25.19 C52.09,25.3 50.52,25.34 48.96,25.31 C47.56,25.31 45.57,25.31 43.25,25.31 C35.16,18.8 10.15,-0.79 3.91,0.91 C3.91,0.91 3.66,1.47 3.3,2.48 L3.3,2.48 C2.13,5.71 -0.15,13.55 1.3,21.78 C1.65,23.68 1.96,25.58 2.18,27.49 C2.65,31.68 4.4,39.69 10.76,45.12 C12.11,55.02 17.21,68.03 21.13,75.93 C21.4237851,77.424812 21.8694294,78.8857212 22.46,80.29 C20.84,86.53 18.98,94.68 19.46,97.37 C19.46,97.37 11.01,95.32 10.15,105.5 C10.15,105.6 10.15,105.71 10.15,105.81 C7.09,107.22 3.28,110.42 7.57,117.15 C8.08705644,117.975877 8.86473726,118.605763 9.78,118.94 C10.54,119.21 11.28,119.21 11.2,118.14 L16.49,124.14 C16.49,124.14 26.07,125.24 26.18,119.68 L26.74,119.77 C28.03,119.96 29.38,120.12 30.74,120.26 L31.4,122.46 C31.4,122.46 24.21,122.31 26.17,126.73 C26.17,126.73 27.98,128.41 28.6,127.8 C28.6,127.8 27.67,130.7 31.4,130.7 C31.4,130.7 35.4,132.84 36.99,131.32 C38.58,129.8 41.82,127.5 42.13,126.58 C42.22,126.33 42.26,124.07 42.27,120.95 L42.89,120.95 C50.89,121.14 59.43,120.88 67.19,120.46 L67.81,120.46 C67.81,123.85 67.86,126.33 67.95,126.6 C68.26,127.52 71.53,129.81 73.09,131.34 C74.65,132.87 78.68,130.72 78.68,130.72 C82.41,130.72 81.48,127.82 81.48,127.82 C82.1,128.43 83.91,126.75 83.91,126.75 C85.91,122.33 78.68,122.48 78.68,122.48 L79.53,119.66 L83.53,119.33 L84.15,119.27 C83.77,125.32 93.84,124.16 93.84,124.16 L99.13,118.16 C99.05,119.23 99.79,119.23 100.55,118.96 C101.465263,118.625763 102.242944,117.995877 102.76,117.17 C109.24,107.03 97.26,104.88 97.26,104.88 C96.8905261,104.781298 96.5118547,104.720978 96.13,104.7 C96.13,104.52 96.13,104.34 96.13,104.17 L96.13,104.17 C96.2748115,102.84165 96.301583,101.503078 96.21,100.17 C95.76,98.34 92.8,95.44 89.07,94.98 C86.64,94.68 86.58,83.49 86.84,75.73 C87.1115839,74.269361 87.2388632,72.7855532 87.22,71.3 C87.2458492,68.9096221 86.9086747,66.5291706 86.22,64.24 C90.99,56.16 94.81,47.7 95.22,45.15 C101.72,39.69 103.46,31.69 103.93,27.52 Z" id="Path" fill="url(#linearGradient-5)" fill-rule="nonzero"></path>
            <path d="M94.72,104.69 L94.72,104.69 C94.34,109.96 93.32,118.42 93.32,118.42 C93.32,118.42 89.08,118.94 82.53,119.53 L78.09,119.91 C74.67,120.18 70.85,120.45 66.81,120.68 C59.33,121.09 51.12,121.34 43.39,121.16 C39.52,121.07 35.77,120.87 32.29,120.53 C30.74,120.38 29.29,120.2 27.8,119.98 C18.93,118.66 12.62,116.13 12.04,111.68 C11.7604393,109.806901 11.6905159,107.908628 11.83,106.02 C12.66,96.02 20.83,98.02 20.83,98.02 C20.3,95.26 22.28,86.68 23.83,80.47 C24.83,76.56 25.7,73.59 25.7,73.59 L82.93,69.75 L83.12,69.75 C83.8884239,69.7517802 84.6225961,70.0681703 85.1516008,70.6255145 C85.6806054,71.1828587 85.9582866,71.9325284 85.92,72.7 C85.58,79.56 85.09,95.28 87.92,95.63 C91.52,96.08 94.37,98.93 94.8,100.73 C94.8940521,102.04968 94.867274,103.375195 94.72,104.69 L94.72,104.69 Z" id="Path" fill="#D3899B" fill-rule="nonzero"></path>
            <path d="M46.1,29.34 C46.1,29.34 24.52,55.34 14.1,48.13 C13.85,47.96 13.61,47.78 13.38,47.6 C6.38,42.3 4.55,33.78 4.07,29.45 C3.86,27.57 3.56,25.71 3.23,23.84 C1.78,15.76 3.99,8.07 5.11,4.89 L5.11,4.89 C5.45,3.89 5.69,3.36 5.69,3.36 C12.93,1.36 46.1,29.34 46.1,29.34 Z" id="Path" fill="#D3899B" fill-rule="nonzero"></path>
            <path d="M34.55,31.74 C34.55,31.74 27.75,36.54 18.16,44.33 C16.6841879,45.5497705 15.1086651,46.6436048 13.45,47.6 C6.45,42.3 4.62,33.78 4.14,29.45 C3.93,27.57 3.63,25.71 3.3,23.84 C1.85,15.76 4.06,8.07 5.18,4.89 L5.18,4.89 C18.55,5.83 34.55,31.74 34.55,31.74 Z" id="Path" fill="#EEC5CD" fill-rule="nonzero"></path>
            <path d="M27.12,29.18 C27.12,29.18 23.49,31.74 18.37,35.9 C17.5787138,36.5624411 16.7360644,37.1609896 15.85,37.69 C12.12,34.86 11.14,30.31 10.85,28 C10.74,27 10.58,26 10.4,25 C9.89297325,21.5991375 10.2365445,18.1256319 11.4,14.89 L11.4,14.89 C18.6,15.35 27.12,29.18 27.12,29.18 Z" id="Path" fill="#000000" fill-rule="nonzero" opacity="0.1"></path>
            <path d="M60.09,29.34 C60.09,29.34 81.68,55.34 92.09,48.13 L92.81,47.6 C99.81,42.3 101.63,33.78 102.11,29.45 C102.32,27.57 102.63,25.71 102.96,23.84 C104.4,15.76 102.2,8.07 101.07,4.89 L101.07,4.89 C100.73,3.89 100.48,3.36 100.48,3.36 C93.27,1.36 60.09,29.34 60.09,29.34 Z" id="Path" fill="#D3899B" fill-rule="nonzero"></path>
            <path d="M71.68,31.74 C71.68,31.74 78.48,36.54 88.07,44.33 C89.5508145,45.5478351 91.1294927,46.641538 92.79,47.6 C99.79,42.3 101.61,33.78 102.09,29.45 C102.3,27.57 102.61,25.71 102.94,23.84 C104.38,15.76 102.18,8.07 101.05,4.89 L101.05,4.89 C87.64,5.83 71.68,31.74 71.68,31.74 Z" id="Path" fill="#EEC5CD" fill-rule="nonzero"></path>
            <path d="M79.13,29.16 C79.13,29.16 82.74,31.71 87.83,35.84 C88.614362,36.4873722 89.4504981,37.069323 90.33,37.58 C94.03,34.77 95.01,30.24 95.27,27.95 C95.38,26.95 95.54,25.95 95.71,24.95 C96.2090629,21.5654564 95.8655847,18.1100657 94.71,14.89 L94.71,14.89 C87.6,15.41 79.13,29.16 79.13,29.16 Z" id="Path" fill="#000000" fill-rule="nonzero" opacity="0.1"></path>
            <path d="M82.95,69.77 C80.23,74.08 77.33,77.97 74.68,80.3 C66.09,87.89 29.12,84.9 26.68,84.5 C26.18,84.42 25.13,82.92 23.81,80.5 C24.81,76.59 25.68,73.62 25.68,73.62 L82.95,69.77 Z" id="Path" fill="#000000" fill-rule="nonzero" opacity="0.1"></path>
            <path d="M53.66,27.16 C52.16,27.27 50.66,27.3 49.15,27.28 C41.42,27.15 15.42,27.49 12.53,37.98 C9.13,50.32 24.32,83.5 26.72,83.9 C29.12,84.3 66.09,87.3 74.72,79.7 C83.35,72.1 94.51,48.33 93.91,46.13 C93.87,46.13 104.55,23.63 53.66,27.16 Z" id="Path" fill="#D3899B" fill-rule="nonzero"></path>
            <path d="M52.85,47.23 C52.85,47.23 33.85,44.3 24.85,63.04 C21.2121117,70.4468617 21.8544211,79.2403828 26.53,86.04 C29.53,90.22 33.86,93.33 39.93,90.82 C53.44,85.27 52.85,47.23 52.85,47.23 Z" id="Path" fill="#000000" fill-rule="nonzero" opacity="0.1"></path>
            <path d="M52.25,46.03 C52.25,46.03 33.25,43.1 24.25,61.84 C20.6121117,69.2468617 21.2544211,78.0403828 25.93,84.84 C28.93,89.02 33.26,92.13 39.33,89.63 C52.84,84.07 52.25,46.03 52.25,46.03 Z" id="Path" fill="#000000" fill-rule="nonzero" opacity="0.1"></path>
            <path d="M52.25,46.63 C52.25,46.63 33.25,43.7 24.25,62.44 C20.6121117,69.8468617 21.2544211,78.6403828 25.93,85.44 C28.93,89.62 33.26,92.73 39.33,90.22 C52.84,84.69 52.25,46.63 52.25,46.63 Z" id="Path" fill="#EEC5CD" fill-rule="nonzero"></path>
            <path d="M31.71,63.01 C31.71,63.01 29.11,65.41 30.11,66.01 C31.11,66.61 31.71,63.01 31.71,63.01 Z" id="Path" fill="#3F2B3B" fill-rule="nonzero"></path>
            <path d="M34.55,66.08 C34.55,66.08 33.14,69.21 34.14,69.56 C35.14,69.91 35.75,67.31 35.75,67.31 L34.55,66.08 Z" id="Path" fill="#3F2B3B" fill-rule="nonzero"></path>
            <path d="M28.23,70.81 C28.23,70.81 26.85,74.51 28.23,74.51 C29.61,74.51 28.23,70.81 28.23,70.81 Z" id="Path" fill="#3F2B3B" fill-rule="nonzero"></path>
            <path d="M26.55,80.69 C26.55,80.69 29.32,87.79 36.55,87.29" id="Path" stroke="#3F2B3B"></path>
            <path d="M33.01,82.8 C33.01,82.8 35.91,85.6 39.01,83.6" id="Path" stroke="#3F2B3B"></path>
            <path d="M55.25,47.23 C55.25,47.23 74.25,44.3 83.25,63.04 C86.8965128,70.4451846 86.2538681,79.2432954 81.57,86.04 C78.57,90.22 74.24,93.33 68.18,90.82 C54.65,85.27 55.25,47.23 55.25,47.23 Z" id="Path" fill="#000000" fill-rule="nonzero" opacity="0.1"></path>
            <path d="M55.85,46.03 C55.85,46.03 74.85,43.1 83.85,61.84 C87.4965128,69.2451846 86.8538681,78.0432954 82.17,84.84 C79.17,89.02 74.84,92.13 68.78,89.63 C55.25,84.07 55.85,46.03 55.85,46.03 Z" id="Path" fill="#000000" fill-rule="nonzero" opacity="0.1"></path>
            <path d="M55.85,46.63 C55.85,46.63 74.85,43.7 83.85,62.44 C87.4965128,69.8451846 86.8538681,78.6432954 82.17,85.44 C79.17,89.62 74.84,92.73 68.78,90.22 C55.25,84.69 55.85,46.63 55.85,46.63 Z" id="Path" fill="#EEC5CD" fill-rule="nonzero"></path>
            <path d="M76.38,63.01 C76.38,63.01 78.98,65.41 77.98,66.01 C76.98,66.61 76.38,63.01 76.38,63.01 Z" id="Path" fill="#3F2B3B" fill-rule="nonzero"></path>
            <path d="M73.55,66.08 C73.55,66.08 74.97,69.21 73.96,69.56 C72.95,69.91 72.35,67.31 72.35,67.31 L73.55,66.08 Z" id="Path" fill="#3F2B3B" fill-rule="nonzero"></path>
            <path d="M79.86,70.81 C79.86,70.81 81.24,74.51 79.86,74.51 C78.48,74.51 79.86,70.81 79.86,70.81 Z" id="Path" fill="#3F2B3B" fill-rule="nonzero"></path>
            <path d="M81.55,80.69 C81.55,80.69 78.77,87.79 71.55,87.29" id="Path" stroke="#3F2B3B"></path>
            <path d="M75.08,82.8 C75.08,82.8 72.18,85.6 69.08,83.6" id="Path" stroke="#3F2B3B"></path>
            <path d="M45,100.89 C45.5,100.79 55,96.69 64.79,100.89 L45,100.89 Z" id="Path" fill="#3F2B3B" fill-rule="nonzero"></path>
            <path d="M27.8,119.98 C18.93,118.66 12.62,116.13 12.04,111.68 C11.7609465,109.806901 11.6905159,107.908628 11.83,106.02 C12.8973145,105.452099 14.0381588,105.034799 15.22,104.78 C16.83,104.33 18.82,104.63 23.02,105.78 C27.22,106.93 26.92,111.93 27.82,118.37 C27.9003545,118.904223 27.8936003,119.447938 27.8,119.98 Z" id="Path" fill="#000000" fill-rule="nonzero" opacity="0.1"></path>
            <path d="M14.63,105.38 C14.63,105.38 3.08,107.5 9.33,117.45 C9.82297475,118.258553 10.5730076,118.878298 11.46,119.21 C12.19,119.47 12.9,119.47 12.83,118.42 L17.92,124.27 C17.92,124.27 28.12,125.47 27.22,119.02 C26.32,112.57 26.62,107.63 22.42,106.43 C18.22,105.23 16.23,104.93 14.63,105.38 Z" id="Path" fill="#D3899B" fill-rule="nonzero"></path>
            <path d="M17.37,112.08 C17.37,112.08 19.82,117.68 23.22,112.98" id="Path" stroke="#3F2B3B"></path>
            <path d="M11.76,114.28 C11.76,114.28 13.03,119.56 17.82,115.62" id="Path" stroke="#3F2B3B"></path>
            <path d="M94.72,104.69 L94.72,104.69 C94.34,109.96 93.32,118.42 93.32,118.42 C93.32,118.42 89.08,118.94 82.53,119.53 C82.4960987,119.160777 82.4960987,118.789223 82.53,118.42 C83.43,111.98 83.13,107.03 87.33,105.83 C91.19,104.74 93.19,104.39 94.72,104.69 Z" id="Path" fill="#000000" fill-rule="nonzero" opacity="0.1"></path>
            <path d="M95.77,105.38 C95.77,105.38 107.31,107.5 101.07,117.45 C100.570398,118.256716 99.8179856,118.875522 98.93,119.21 C98.2,119.47 97.49,119.47 97.57,118.42 L92.47,124.27 C92.47,124.27 82.28,125.47 83.18,119.02 C84.08,112.57 83.78,107.63 87.97,106.43 C92.16,105.23 94.16,104.93 95.77,105.38 Z" id="Path" fill="#D3899B" fill-rule="nonzero"></path>
            <path d="M93.02,112.08 C93.02,112.08 90.57,117.68 87.17,112.98" id="Path" stroke="#3F2B3B"></path>
            <path d="M98.64,114.28 C98.64,114.28 97.37,119.56 92.57,115.62" id="Path" stroke="#3F2B3B"></path>
            <path d="M43.39,121.16 C39.52,121.07 35.77,120.87 32.29,120.53 L28.84,108.89 C28.0124886,106.11958 28.8743252,103.120947 31.046538,101.212677 C33.2187507,99.3044067 36.3034256,98.836064 38.9441514,100.013591 C41.5848772,101.191118 43.2979158,103.798811 43.33,106.69 C43.36,111.26 43.4,117 43.39,121.16 Z" id="Path" fill="#000000" fill-rule="nonzero" opacity="0.1"></path>
            <path d="M28.24,108.89 L32.31,122.62 C32.31,122.62 25.38,122.47 27.31,126.82 C27.31,126.82 29.05,128.47 29.65,127.82 C29.65,127.82 28.76,130.67 32.35,130.67 C32.35,130.67 36.24,132.76 37.74,131.27 C39.24,129.78 42.4,127.52 42.74,126.62 C42.93,126.03 42.87,114.55 42.81,106.62 C42.7715972,102.560456 39.4697258,99.2898184 35.41,99.29 L35.41,99.29 C33.0372899,99.2519516 30.7906448,100.35564 29.370641,102.256901 C27.9506373,104.158161 27.5300382,106.625678 28.24,108.89 L28.24,108.89 Z" id="Path" fill="#D3899B" fill-rule="nonzero"></path>
            <path d="M33.74,126.17 C33.74,126.17 30.74,129.07 32.31,130.72" id="Path" stroke="#3F2B3B"></path>
            <path d="M32.41,124.36 C32.41,124.36 29.61,125.27 29.61,127.87" id="Path" stroke="#3F2B3B"></path>
            <path d="M81.6700621,106.78 C81.66853,107.494571 81.5641243,108.205203 81.36,108.89 L78.09,119.89 C74.67,120.16 70.85,120.43 66.81,120.66 C66.81,116.55 66.81,111.07 66.87,106.66 C66.8865689,102.573093 70.2130931,99.2734321 74.3,99.2899385 C78.3869069,99.3065692 81.6865682,102.633093 81.6700621,106.72 L81.6700621,106.78 Z" id="Path" fill="#000000" fill-rule="nonzero" opacity="0.1"></path>
            <path d="M81.95,108.89 L77.88,122.62 C77.88,122.62 84.81,122.47 82.88,126.82 C82.88,126.82 81.14,128.47 80.54,127.82 C80.54,127.82 81.44,130.67 77.84,130.67 C77.84,130.67 73.96,132.76 72.45,131.27 C70.94,129.78 67.8,127.52 67.45,126.62 C67.25,126.03 67.31,114.55 67.38,106.62 C67.4129478,102.562067 70.7119328,99.2898662 74.77,99.29 L74.77,99.29 C77.1444599,99.2486922 79.3941003,100.351021 80.8164548,102.252776 C82.2388094,104.154532 82.6605555,106.623973 81.95,108.89 L81.95,108.89 Z" id="Path" fill="#D3899B" fill-rule="nonzero"></path>
            <path d="M76.45,126.17 C76.45,126.17 79.45,129.07 77.88,130.72" id="Path" stroke="#3F2B3B"></path>
            <path d="M77.78,124.36 C77.78,124.36 80.58,125.27 80.58,127.87" id="Path" stroke="#3F2B3B"></path>
            <path d="M52.25,43.63 C52.25,43.63 38.16,43.18 37.71,54.12 C37.26,65.06 59.71,60.42 59.71,60.42 C59.71,60.42 69.16,59.15 67.51,52.51 C65.86,45.87 62.45,44.23 52.25,43.63 Z" id="Path" fill="#000000" fill-rule="nonzero" opacity="0.1"></path>
            <path d="M52.25,42.43 C52.25,42.43 38.16,41.98 37.71,52.92 C37.26,63.86 59.71,59.22 59.71,59.22 C59.71,59.22 69.16,57.95 67.51,51.31 C65.86,44.67 62.45,43.03 52.25,42.43 Z" id="Path" fill="#000000" fill-rule="nonzero" opacity="0.1"></path>
            <path d="M52.25,43.03 C52.25,43.03 38.16,42.58 37.71,53.52 C37.26,64.46 59.71,59.82 59.71,59.82 C59.71,59.82 69.16,58.55 67.51,51.91 C65.86,45.27 62.45,43.63 52.25,43.03 Z" id="Path" fill="#3F2B3B" fill-rule="nonzero"></path>
            <path d="M20.8,98.04 C20.8,98.04 25.52,99.74 26.48,102.98" id="Path" fill="#000000" fill-rule="nonzero" opacity="0.1"></path>
            <path d="M87.92,95.69 C87.92,95.69 84.54,97.11 84.77,103.03" id="Path" fill="#000000" fill-rule="nonzero" opacity="0.1"></path>
            <ellipse id="Oval" fill="#EEC5CD" fill-rule="nonzero" transform="translate(20.801730, 119.529572) rotate(-30.000000) translate(-20.801730, -119.529572) " cx="20.8017301" cy="119.529572" rx="2.2" ry="3.64"></ellipse>
            <ellipse id="Oval" fill="#EEC5CD" fill-rule="nonzero" transform="translate(93.100800, 116.561200) rotate(-60.113473) translate(-93.100800, -116.561200) " cx="93.1008" cy="116.5612" rx="3.65253641" ry="2.20757695"></ellipse>
        </g>
        <g id="undraw_santa_claus_q0g4" transform="translate(1103.000000, 621.000000)" fill-rule="nonzero">
            <path d="M69.0287967,2.49763847e-05 C66.4388386,-0.00606717763 63.9715709,1.10258148 62.2568598,3.04297031 C60.5421487,4.98335915 59.7459393,7.56770272 60.0714951,10.1362465 C60.2122965,11.2285358 60.5549062,12.2851617 61.0818787,13.252321 C61.2628227,13.59303 61.4650612,13.9220037 61.6873923,14.2372871 C64.2455159,17.7991418 68.9943342,19.007848 72.944929,17.102643 C73.2513868,16.9570516 73.5481846,16.7919545 73.8334933,16.6083691 C77.2036697,14.458762 78.7550354,10.3470488 77.6444121,6.50797487 C76.5337888,2.66890091 73.026506,0.0196261269 69.0287967,2.49763847e-05 Z M69.0287967,7.6612954 C67.5348084,7.6612954 66.3236916,6.45059296 66.3236916,4.9571158 C66.3236916,3.46363865 67.5348084,2.25293621 69.0287967,2.25293621 C70.522785,2.25293621 71.7339018,3.46363865 71.7339018,4.9571158 C71.7339018,6.45059296 70.522785,7.6612954 69.0287967,7.6612954 Z" id="Shape" fill="#EEEFF0"></path>
            <path d="M62,4 L61.8243902,14 C61.5209855,13.6862707 61.2456316,13.3589489 61,13.0200211 L62,4 Z" id="Path" fill="#000000" opacity="0.1"></path>
            <path d="M74,4 L73.8522337,16.5087623 C73.5785903,16.69122 73.2939277,16.855303 73,17 L74,4 Z" id="Path" fill="#000000" opacity="0.1"></path>
            <path d="M78,10.0432202 C77.4570894,14.5908895 73.8152342,18 69.5,18 C65.1847658,18 61.5429106,14.5908895 61,10.0432202 C66.3765172,7.31892659 72.6234828,7.31892659 78,10.0432202 Z" id="Path" fill="#000000" opacity="0.1"></path>
            <path d="M90,29.0240078 C90,30.5062817 89.8327821,31.9840501 89.5007184,33.4304563 C88.8980725,36.0463603 87.757264,38.5155133 86.1474946,40.6881361 C85.6044402,41.4163881 85.0130217,42.1090832 84.3770491,42.7617589 C81.5834183,45.6430551 77.9742359,47.6474288 74.0093201,48.5195182 C73.295901,48.6769062 72.5734378,48.7923154 71.8458357,48.865122 C71.0657144,48.957312 70.2804986,49.0023264 69.4946841,49 C66.9269455,49.0024197 64.3816377,48.5334603 61.991536,47.6174923 C61.3075175,47.358389 60.6395213,47.0606668 59.9909325,46.7258345 C55.3556846,44.3524864 51.8225006,40.3428144 50.1118465,35.5144472 C49.8659546,34.8227325 49.6614191,34.1176663 49.4992724,33.402808 C49.3718003,32.853298 49.2691145,32.2968758 49.1912149,31.7300856 C49.0647505,30.8240589 49.0008702,29.9107553 49,28.9963595 C48.9983591,27.0161149 49.2978775,25.0465991 49.8887704,23.1521993 C50.0056198,22.7685791 50.1401737,22.3918709 50.2818093,22.0151628 C52.9598063,15.0077968 59.4185125,10.0433852 67.0256643,9.14518783 C74.6328162,8.24699044 82.1180608,11.5650013 86.4307659,17.7469559 L86.4307659,17.7469559 C88.760732,21.067566 90.0051435,24.9993215 90,29.0240078 L90,29.0240078 Z" id="Path" fill="#EEEFF0"></path>
            <path d="M50,22 L49.8441558,36 C49.6186899,35.2826282 49.4311449,34.5514097 49.2824675,33.8100358 C49.1655844,33.2401434 49.0714286,32.6630824 49,32.0752688 L49.6493506,23.1792115 C49.7597403,22.7706093 49.8701299,22.390681 50,22 Z" id="Path" fill="#000000" opacity="0.1"></path>
            <path d="M62,18 L61.6840537,48 C61.1082655,47.7402846 60.5459644,47.441859 60,47.1062356 L62,18 Z" id="Path" fill="#000000" opacity="0.1"></path>
            <path d="M74,17 L73.5458333,48.6451935 C72.7063328,48.8067724 71.85619,48.9252547 71,49 L74,17 Z" id="Path" fill="#000000" opacity="0.1"></path>
            <path d="M86,18 L86,18.0344732 L85.7182131,40.9316051 C85.1911801,41.6580211 84.6172099,42.3489698 84,43 L85.9828179,18.0275786 L86,18 Z" id="Path" fill="#000000" opacity="0.1"></path>
            <path d="M89,33.3076727 C86.8901653,42.483261 78.5845279,49 69,49 C59.4154721,49 51.1098347,42.483261 49,33.3076727 C61.3583681,26.2307758 76.6416319,26.2307758 89,33.3076727 L89,33.3076727 Z" id="Path" fill="#000000" opacity="0.1"></path>
            <path d="M108,68.0159891 C108.015613,77.4560983 104.588918,86.5782767 98.3614113,93.6746547 C97.5396286,94.6075705 96.6830247,95.502195 95.7811531,96.3515661 C91.1648801,100.725141 85.545035,103.898752 79.4151431,105.593698 C78.4088076,105.879143 77.3780972,106.115853 76.3404225,106.307309 C71.1226057,107.301723 65.7569778,107.224741 60.5698567,106.081042 C59.5530748,105.861738 58.5502215,105.593698 57.5647787,105.290849 C51.6502388,103.474573 46.2544744,100.273939 41.8255521,95.9547288 C40.9933231,95.1575731 40.1993975,94.3116831 39.4472575,93.4309827 C28.1615558,80.3291791 26.8556812,61.3618449 36.2393871,46.8378808 C45.6230931,32.3139167 63.4545939,25.703126 80.0423236,30.5985273 C96.6300534,35.4939286 108.011171,50.7260011 108,68.0159891 L108,68.0159891 Z" id="Path" fill="#D53235"></path>
            <polygon id="Path" fill="#000000" opacity="0.1" points="41.517199 96 42 47 39 93.4744064"></polygon>
            <path d="M61,47 L60.3776908,106 C59.2348337,105.781031 58.1076321,105.513402 57,105.211016 L61,47 Z" id="Path" fill="#000000" opacity="0.1"></path>
            <path d="M80,47 L79.3928915,106.278211 C78.2824207,106.566927 77.1450528,106.806349 76,107 L80,47 Z" id="Path" fill="#000000" opacity="0.1"></path>
            <polygon id="Path" fill="#000000" opacity="0.1" points="98.5704388 94.2884344 99 47 96 97"></polygon>
            <ellipse id="Oval" fill="#EEEFF0" cx="69" cy="141" rx="61" ry="62"></ellipse>
            <g id="Group" opacity="0.05" transform="translate(8.000000, 79.000000)" fill="#000000">
                <path d="M121.982582,61.9266479 C121.999272,70.8236091 120.105882,79.6212367 116.429368,87.7291268 C106.79908,108.952338 85.6454023,123.682141 61.1051724,123.682141 C36.5649425,123.682141 15.4112644,108.952338 5.78097701,87.7291268 C2.10446235,79.6212367 0.211073093,70.8236091 0.22776273,61.9266479 C0.22776273,27.8214085 27.4815517,0.174647887 61.1051724,0.174647887 C94.7287931,0.174647887 121.982582,27.8214085 121.982582,61.9266479 Z" id="Path"></path>
            </g>
            <polygon id="Path" fill="#000000" opacity="0.1" points="25 110 19 182 24.0794621 182"></polygon>
            <polygon id="Path" fill="#000000" opacity="0.1" points="33 110 27 182 32.0794621 182"></polygon>
            <polygon id="Path" fill="#000000" opacity="0.1" points="108 110 102 182 107.079462 182"></polygon>
            <polygon id="Path" fill="#000000" opacity="0.1" points="117 110 111 182 116.079462 182"></polygon>
            <path d="M125,166.896737 C115.33911,188.208641 94.1182118,203 69.5,203 C44.8817882,203 23.6608897,188.208641 14,166.896737 C27.0209663,149.350131 47.6123441,139 69.5,139 C91.3876559,139 111.979034,149.350131 125,166.896737 L125,166.896737 Z" id="Path" fill="#000000" opacity="0.1"></path>
            <path d="M138,209.492937 C138.028862,226.532516 131.634704,242.965941 120.075563,255.559724 C118.82203,256.939401 117.507579,258.265566 116.132208,259.538219 C111.573228,263.777281 106.456212,267.382655 100.921121,270.255727 C99.4239118,271.037466 97.8915565,271.763367 96.3240555,272.43343 C91.6758326,274.42518 86.8194513,275.898789 81.8440008,276.827224 C80.241354,277.127356 78.6223058,277.370486 76.9868563,277.556615 C74.3383857,277.857696 71.674532,278.005685 69.0087679,278 C66.9211096,278 64.8592248,277.909095 62.8231135,277.72762 C61.1993793,277.581044 59.5897033,277.378629 58.0011148,277.130846 C53.156768,276.361126 48.4103303,275.074026 43.8444012,273.291947 C42.316732,272.707969 40.8148363,272.066989 39.3387142,271.369008 C34.169952,268.923216 29.3292016,265.845708 24.9289511,262.207999 C23.6027843,261.119147 22.322307,259.980274 21.0875192,258.791379 C7.59117735,245.901255 -0.0248583712,228.101463 0,209.506896 C0,207.433891 0.091439945,205.385315 0.274197916,203.361168 C3.40568546,168.402759 32.9597581,141 68.9911951,141 C105.022632,141 134.576705,168.402759 137.708192,203.361168 C137.900322,205.376008 137.997559,207.419931 138,209.492937 Z" id="Path" fill="#D53235"></path>
            <path d="M26,184 L25.2038462,262 C23.7525641,260.907279 22.3512821,259.764357 21,258.571236 L26,184 Z" id="Path" fill="#000000" opacity="0.1"></path>
            <path d="M45,184 L44.2171053,273 C42.7872807,272.412541 41.3815789,271.769134 40,271.069778 L45,184 Z" id="Path" fill="#000000" opacity="0.1"></path>
            <polygon id="Path" fill="#000000" opacity="0.1" points="63.0746453 277 64 184 58 276.404917"></polygon>
            <polygon id="Path" fill="#000000" opacity="0.1" points="82.0933661 276.271231 83 184 77 277"></polygon>
            <path d="M102,184 L101.255042,269.821212 C99.8692258,270.603341 98.4508783,271.329604 97,272 L102,184 Z" id="Path" fill="#000000" opacity="0.1"></path>
            <path d="M121,184 L120.275915,255.024735 C118.916667,256.403292 117.491362,257.72838 116,259 L121,184 Z" id="Path" fill="#000000" opacity="0.1"></path>
            <path d="M106,105 C106,124.887579 89.4357606,141 69,141 C48.5642394,141 32,124.88409 32,105 C31.9989287,101.708625 32.4596177,98.4332595 33.3686868,95.2690554 C37.0091785,82.6142804 47.5806066,72.7751667 60.8543997,69.8757682 C66.2216164,68.7080773 71.7783836,68.7080773 77.1456003,69.8757682 C90.4193934,72.7751667 100.990821,82.6142804 104.631313,95.2690554 C105.540382,98.4332595 106.001071,101.708625 106,105 Z" id="Path" fill="#000000" opacity="0.1"></path>
            <path d="M105,104.045877 C104.977078,122.969767 90.3046766,138.644678 71.4227183,139.917347 C52.5407599,141.190017 35.8974165,127.62583 33.3350235,108.876192 C30.7726306,90.1265546 43.1662431,72.5944502 61.6973613,68.7546002 C80.2284795,64.9147502 98.5687432,76.0784598 103.668397,94.3023495 C104.555192,97.4741377 105.00322,100.752465 105,104.045877 L105,104.045877 Z" id="Path" fill="#FFAB9E"></path>
            <rect id="Rectangle" fill="#000000" opacity="0.1" x="30" y="67" width="78" height="26" rx="12"></rect>
            <path d="M104,94.9287476 C103.710954,94.9741363 103.418998,94.9979514 103.126497,95 L34.8735031,95 C34.5810017,94.9979514 34.2890458,94.9741363 34,94.9287476 C37.615735,81.929789 47.9793524,71.9777667 61.001107,69 L76.998893,69 C90.0206476,71.9777667 100.384265,81.929789 104,94.9287476 L104,94.9287476 Z" id="Path" fill="#000000" opacity="0.1"></path>
            <rect id="Rectangle" fill="#EEEFF0" x="30" y="68" width="78" height="26" rx="13"></rect>
            <circle id="Oval" fill="#000000" opacity="0.1" cx="69.5" cy="154.5" r="44.5"></circle>
            <circle id="Oval" fill="#EEEFF0" cx="69.5" cy="154.5" r="44.5"></circle>
            <g id="Group" opacity="0.03" transform="translate(25.000000, 110.000000)" fill="#000000">
                <path d="M88.787098,44.4685882 C88.7889921,62.1245174 78.3268058,78.1028551 62.1429412,85.1607843 C60.7895528,85.7552041 59.4054762,86.2771455 57.9965882,86.7243922 C55.471192,87.5408575 52.8765079,88.1249827 50.2448627,88.4694902 C48.8487843,88.6544706 47.4178039,88.7731373 45.9728627,88.8185098 C45.4563137,88.8359608 44.9432549,88.842942 44.4301961,88.842942 C42.4094449,88.842942 40.3909858,88.7068998 38.3886667,88.4345882 C36.9803416,88.2460372 35.582472,87.9862664 34.2004314,87.6562745 C31.5821189,87.0425115 29.0267134,86.1860359 26.5673725,85.0979608 C25.2450312,84.5222979 23.9541704,83.8768675 22.7002353,83.1643922 C19.8667578,81.5696014 17.2199577,79.6638117 14.808902,77.4823529 C-0.348267469,63.8724272 -4.28695353,41.6881405 5.25881333,23.6923577 C14.8045802,5.69657496 35.3805989,-3.48401755 55.1492589,1.4322764 C74.9179188,6.34857035 88.7967299,24.0977796 88.8010588,44.4685882 L88.787098,44.4685882 Z" id="Path"></path>
            </g>
            <path d="M87,120.341379 C87,123.843549 78.9402985,131 69,131 C59.0597015,131 51,123.843549 51,120.341379 C51,116.839208 59.0597015,118.305991 69,118.305991 C78.9402985,118.305991 87,116.835587 87,120.341379 Z" id="Path" fill="#000000" opacity="0.1"></path>
            <path d="M86,121.160179 C86,124.393263 78.3782352,131 69,131 C59.6217648,131 52,124.396777 52,121.160179 C52,117.923581 59.6217648,119.283585 69,119.283585 C78.3782352,119.283585 86,117.937638 86,121.160179 Z" id="Path" fill="#FFAB9E"></path>
            <path d="M81,122.440541 C81,124.598905 75.8510086,129 69.5,129 C63.1489914,129 58,124.598905 58,122.440541 C58,120.282177 63.1489914,121.189112 69.5,121.189112 C75.8510086,121.189112 81,120.282177 81,122.440541 Z" id="Path" fill="#FFFFFF"></path>
            <path d="M138,208.161818 C138.004827,213.49458 137.389936,218.809768 136.167722,224 L2.83227844,224 C1.61006411,218.809768 0.995173198,213.49458 1,208.161818 C1,206.084565 1.09076852,204.030626 1.27224852,202 L137.731241,202 C137.908068,204.028294 137.997645,206.082234 138,208.161818 Z" id="Path" fill="#000000" opacity="0.1"></path>
            <path d="M138,210.160839 C138.004625,215.493895 137.389739,220.809373 136.167724,226 L2.83227616,226 C1.61026099,220.809373 0.995374603,215.493895 1,210.160839 C1,208.083916 1.09076619,206.030303 1.27224619,204 L137.731244,204 C137.90807,206.027972 137.997647,208.081585 138,210.160839 Z" id="Path" fill="#000000" opacity="0.1"></path>
            <path d="M138,209.158321 C138.004844,214.492237 137.389955,219.808586 136.167721,225 L2.83227864,225 C1.61004503,219.808586 0.995155698,214.492237 1,209.158321 C1,207.081068 1.09076873,205.028294 1.27224872,203 L137.731241,203 C137.908068,205.028294 137.997645,207.081068 138,209.158321 Z" id="Path" fill="#373E46"></path>
            <circle id="Oval" fill="#000000" opacity="0.1" cx="49" cy="101" r="5"></circle>
            <circle id="Oval" fill="#EEEFF0" cx="49" cy="100" r="5"></circle>
            <circle id="Oval" fill="#000000" opacity="0.1" cx="89" cy="101" r="5"></circle>
            <circle id="Oval" fill="#EEEFF0" cx="89" cy="100" r="5"></circle>
            <circle id="Oval" fill="#373E46" cx="49" cy="100" r="2"></circle>
            <circle id="Oval" fill="#373E46" cx="89" cy="100" r="2"></circle>
            <circle id="Oval" fill="#FFFFFF" cx="49.5" cy="99.5" r="1"></circle>
            <circle id="Oval" fill="#FFFFFF" cx="88.5" cy="99.5" r="1"></circle>
            <ellipse id="Oval" fill="#000000" opacity="0.1" cx="69" cy="110.5" rx="6" ry="8.5"></ellipse>
            <ellipse id="Oval" fill="#000000" opacity="0.1" cx="69" cy="109.5" rx="6" ry="8.5"></ellipse>
            <ellipse id="Oval" fill="#FFAB9E" cx="69" cy="109.5" rx="6" ry="8.5"></ellipse>
            <circle id="Oval" fill="#000000" opacity="0.1" cx="69.5" cy="213.5" r="15.5"></circle>
            <circle id="Oval" fill="#EEEFF0" cx="69.5" cy="213.5" r="14.5"></circle>
            <circle id="Oval" fill="#373E46" cx="69.5" cy="213.5" r="11.5"></circle>
            <g id="Group" opacity="0.3" transform="translate(39.000000, 108.000000)" fill="#F75842">
                <ellipse id="Oval" cx="3.61052632" cy="2.94666667" rx="3.24578947" ry="2.93666667"></ellipse>
            </g>
            <g id="Group" opacity="0.3" transform="translate(92.000000, 108.000000)" fill="#F75842">
                <ellipse id="Oval" cx="3.61052632" cy="2.94666667" rx="3.24578947" ry="2.93666667"></ellipse>
            </g>
            <path d="M40,135 L39.3495058,187 C38.1764266,185.97746 37.058434,184.896619 36,183.761802 L40,135 Z" id="Path" fill="#000000" opacity="0.1"></path>
            <path d="M52,135 L51.2129278,195 C49.7723457,194.419474 48.3660591,193.768591 47,193.050097 L52,135 Z" id="Path" fill="#000000" opacity="0.1"></path>
            <path d="M64,135 L63.2253521,198 C61.8045463,197.810919 60.3942885,197.550419 59,197.2195 L64,135 Z" id="Path" fill="#000000" opacity="0.1"></path>
            <path d="M76,135 L75.2382271,197.652164 C73.8531856,197.836517 72.433518,197.954781 71,198 L76,135 Z" id="Path" fill="#000000" opacity="0.1"></path>
            <path d="M88,135 L87.2519685,194.440005 C85.8641067,195.033051 84.4447751,195.553787 83,196 L88,135 Z" id="Path" fill="#000000" opacity="0.1"></path>
            <path d="M99,135 L98.4226475,186.96776 C97.3323825,188.045326 96.1898362,189.057547 95,190 L99,135 Z" id="Path" fill="#000000" opacity="0.1"></path>
            <polygon id="Path" fill="#000000" opacity="0.1" points="41 94 42 77 41.8493151 94"></polygon>
            <polygon id="Path" fill="#000000" opacity="0.1" points="60.8458904 94 61 77 60 94"></polygon>
            <polygon id="Path" fill="#000000" opacity="0.1" points="80 77 79.8458904 94 79 94"></polygon>
            <polygon id="Path" fill="#000000" opacity="0.1" points="98 94 99 77 98.8493151 94"></polygon>
        </g>
        <g id="undraw_not_found_60pq" transform="translate(1014.000000, 728.000000)" fill-rule="nonzero">
            <circle id="Oval" fill="#2F2E41" cx="67" cy="86" r="52"></circle>
            <polygon id="Rectangle" fill="#2F2E41" transform="translate(67.799332, 143.299270) rotate(-17.083450) translate(-67.799332, -143.299270) " points="59.8995506 129.17803 75.6835471 129.186718 75.6991139 157.42051 59.9151174 157.411822"></polygon>
            <polygon id="Rectangle" fill="#2F2E41" transform="translate(97.978736, 134.045509) rotate(-17.083183) translate(-97.978736, -134.045509) " points="90.0789482 119.924259 105.862957 119.932947 105.878523 148.16676 90.0945148 148.158072"></polygon>
            <ellipse id="Oval" fill="#2F2E41" transform="translate(77.080468, 155.561950) rotate(-17.083450) translate(-77.080468, -155.561950) " cx="77.0804683" cy="155.56195" rx="13.1533307" ry="4.92450399"></ellipse>
            <ellipse id="Oval" fill="#2F2E41" transform="translate(107.067483, 145.677494) rotate(-17.083450) translate(-107.067483, -145.677494) " cx="107.067483" cy="145.677494" rx="13.1533307" ry="4.92450399"></ellipse>
            <ellipse id="Oval" fill="#FFFFFF" cx="64" cy="73.5" rx="18" ry="17.5"></ellipse>
            <circle id="Oval" fill="#3F3D56" cx="64" cy="73" r="6"></circle>
            <path d="M4.22389898,54.745433 C-5.36390989,38.043455 1.92222059,15.9896819 20.4979307,5.48696263 C39.0736408,-5.01575662 61.9046778,0.00973137065 71.4924867,16.7117094 C81.0802956,33.4136873 69.9105373,44.0589563 51.3348272,54.5616821 C32.7591171,65.0644079 13.8117079,71.447411 4.22389898,54.745433 Z" id="Path" fill="#6C63FF"></path>
            <path d="M148,123.194355 C148,159.369113 126.510697,172 100,172 C99.3858641,172 98.7726986,171.993169 98.1605066,171.979507 C96.9321911,171.953162 95.7155851,171.894647 94.5136161,171.812676 C70.5882137,170.118226 52,156.837661 52,123.194335 C52,88.3774947 96.4613474,44.4445194 99.801118,41.1931371 L99.8069728,41.187298 C99.9356729,41.0614584 100,41 100,41 C100,41 148,87.0196043 148,123.194355 Z" id="Path" fill="#6C63FF"></path>
            <path d="M98.1759266,166.485556 L115.625205,141.934039 L98.1323083,169.181313 L98.085826,172 C96.8649636,171.973651 95.6557398,171.915126 94.4610641,171.833142 L96.3417658,135.635147 L96.3272177,135.35415 L96.3591844,135.301465 L96.5364955,131.882754 L79,104.568165 L96.5917523,129.318735 L96.6324871,130.044632 L98.0538592,102.694918 L83.0404471,74.4700091 L98.2369896,97.8946647 L99.7165216,41.1931345 L99.7223409,41 L99.7223409,41.1873273 L99.4752771,85.8999401 L114.421879,68.1741259 L99.4142401,89.7518373 L99.0188963,114.238969 L112.974281,90.7381832 L98.9607755,117.842051 L98.7398592,131.455408 L119,98.7463748 L98.6642806,136.205932 L98.1759266,166.485556 Z" id="Path" fill="#3F3D56"></path>
            <ellipse id="Oval" fill="#2F2E41" transform="translate(46.579262, 106.206749) rotate(-64.625740) translate(-46.579262, -106.206749) " cx="46.5792621" cy="106.206749" rx="8.14359543" ry="25.9728713"></ellipse>
        </g>
        <g id="Group" transform="translate(1296.000000, 735.000000)" fill-rule="nonzero">
            <ellipse id="Oval" fill="#2F2E41" cx="70" cy="87.5" rx="49" ry="49.5"></ellipse>
            <rect id="Rectangle" fill="#2F2E41" transform="translate(84.500000, 139.500000) rotate(-180.000000) translate(-84.500000, -139.500000) " x="77" y="126" width="15" height="27"></rect>
            <rect id="Rectangle" fill="#2F2E41" transform="translate(54.500000, 139.500000) rotate(-180.000000) translate(-54.500000, -139.500000) " x="47" y="126" width="15" height="27"></rect>
            <ellipse id="Oval" fill="#2F2E41" transform="translate(51.628668, 155.392747) rotate(-30.000000) translate(-51.628668, -155.392747) " cx="51.628668" cy="155.392747" rx="12.4696161" ry="4.67900762"></ellipse>
            <ellipse id="Oval" fill="#2F2E41" transform="translate(80.923185, 155.392747) rotate(-30.000000) translate(-80.923185, -155.392747) " cx="80.9231848" cy="155.392747" rx="12.4696161" ry="4.67900762"></ellipse>
            <circle id="Oval" fill="#FFFFFF" cx="68" cy="75" r="17"></circle>
            <circle id="Oval" fill="#3F3D56" cx="62.5" cy="67.5" r="5.5"></circle>
            <path d="M117.268184,41.4475673 C121.265158,23.5168487 108.488446,5.39861675 88.7305946,0.979358975 C68.9727437,-3.4398988 49.7156665,7.51329642 45.7186871,25.4440213 C41.7217076,43.3747462 54.8159649,49.9879006 74.5738096,54.4071583 C94.3316543,58.8264161 113.271211,59.3782859 117.268184,41.4475673 Z" id="Path" fill="#6C63FF"></path>
            <ellipse id="Oval" fill="#2F2E41" transform="translate(26.563069, 70.110933) rotate(-66.828840) translate(-26.563069, -70.110933) " cx="26.5630692" cy="70.1109329" rx="7.73703934" ry="24.6245872"></ellipse>
            <ellipse id="Oval" fill="#2F2E41" transform="translate(118.809644, 103.186120) rotate(-66.828840) translate(-118.809644, -103.186120) " cx="118.809644" cy="103.18612" rx="7.73703934" ry="24.6245872"></ellipse>
            <path d="M79,108.6 C79,114.896046 74.0751322,120 68,120 C61.9248678,120 57,114.896046 57,108.6 C57,102.303951 61.924865,101 68,101 C74.075135,101 79,102.303951 79,108.6 Z" id="Path" fill="#FFFFFF"></path>
        </g>
        <g id="undraw_elements_cipa" transform="translate(2.000000, 600.000000)" fill-rule="nonzero">
            <circle id="Oval" fill="#2F2E41" cx="98.5" cy="229.5" r="49.5"></circle>
            <rect id="Rectangle" fill="#2F2E41" x="76" y="268" width="15" height="27"></rect>
            <rect id="Rectangle" fill="#2F2E41" x="106" y="268" width="15" height="27"></rect>
            <ellipse id="Oval" fill="#2F2E41" cx="88.5" cy="295.5" rx="12.5" ry="4.5"></ellipse>
            <ellipse id="Oval" fill="#2F2E41" cx="118.5" cy="294.5" rx="12.5" ry="4.5"></ellipse>
            <circle id="Oval" fill="#FFFFFF" cx="100" cy="217" r="17"></circle>
            <circle id="Oval" fill="#3F3D56" cx="99.5" cy="216.5" r="5.5"></circle>
            <path d="M50.7318155,183.447567 C46.7348423,165.516849 59.5115544,147.398617 79.2694053,142.979359 C99.0272561,138.560101 118.284333,149.513296 122.281313,167.444021 C126.278292,185.374746 113.184041,191.987901 93.4261965,196.407158 C73.6683519,200.826416 54.7287887,201.378286 50.7318155,183.447567 Z" id="Path" fill="#6C63FF"></path>
            <circle id="Oval" fill="#2F2E41" cx="81.5" cy="87.5" r="49.5"></circle>
            <rect id="Rectangle" fill="#2F2E41" x="59" y="126" width="15" height="27"></rect>
            <rect id="Rectangle" fill="#2F2E41" x="89" y="126" width="15" height="27"></rect>
            <ellipse id="Oval" fill="#2F2E41" cx="71.5" cy="153.5" rx="12.5" ry="4.5"></ellipse>
            <ellipse id="Oval" fill="#2F2E41" cx="101.5" cy="152.5" rx="12.5" ry="4.5"></ellipse>
            <circle id="Oval" fill="#FFFFFF" cx="83" cy="75" r="17"></circle>
            <circle id="Oval" fill="#3F3D56" cx="82.5" cy="75.5" r="5.5"></circle>
            <path d="M33.7318155,41.4475673 C29.7348423,23.5168487 42.5115544,5.39861675 62.2694053,0.979358975 C82.0272561,-3.4398988 101.284333,7.51329642 105.281313,25.4440213 C109.278292,43.3747462 96.1840411,49.9879006 76.4261965,54.4071583 C56.6683519,58.8264161 37.7287887,59.3782859 33.7318155,41.4475673 Z" id="Path" fill="#6C63FF"></path>
            <ellipse id="Oval" fill="#2F2E41" transform="translate(127.031418, 50.214774) rotate(-69.082170) translate(-127.031418, -50.214774) " cx="127.031418" cy="50.2147743" rx="24.6848444" ry="7.74446539"></ellipse>
            <ellipse id="Oval" fill="#2F2E41" transform="translate(25.866866, 64.589781) rotate(-64.625740) translate(-25.866866, -64.589781) " cx="25.8668663" cy="64.5897815" rx="7.74897201" ry="24.6704924"></ellipse>
            <path d="M57,105.883707 C57,110.629236 69.4422122,120 83.2485885,120 C97.0549649,120 110,106.639849 110,101.894319 C110,97.1487898 97.0549649,102.814947 83.2485885,102.814947 C69.4422122,102.814947 57,101.138183 57,105.883707 Z" id="Path" fill="#FFFFFF"></path>
        </g>
        <g id="undraw_dog_walking_0jpt" transform="translate(1196.000000, 812.000000)" fill-rule="nonzero">
            <path d="M81,19.6479653 C81,28.2895334 85.5003286,28.7966434 93.0026287,35.2907559 C100.504929,41.7848685 105,28.2895334 105,19.6479653 C105,11.0063971 99.6269441,4 93.0026287,4 C86.3783133,4 81,11.0063971 81,19.6479653 Z" id="Path" fill="#915766"></path>
            <path d="M25.0984457,76.6986069 C25.0984457,76.6986069 24.0586131,85.2621647 28.7378597,85.7659034 C31.0193762,85.9645323 33.3107328,86.0368524 35.6007547,85.982511 C38.3024162,85.9501024 40.7767852,84.5107923 42.0763857,82.2157158 C43.3759861,79.9206394 43.2994729,77.1253693 41.8761443,74.9002597 L41.7357669,74.6886895 C37.0565203,67.6313104 25.0984457,76.6986069 25.0984457,76.6986069 Z" id="Path" fill="#915766"></path>
            <path d="M27.8221044,67.9207932 C27.8221044,67.9207932 39.1950675,82.7694505 56.2545121,69.4568612 C73.3139566,56.144272 52.635842,50 52.635842,50 L30.9238216,50 L18,55.6322493 L27.8221044,67.9207932 Z" id="Path" fill="#B56D7E"></path>
            <path d="M74.2613895,57 C74.2613895,57 79.4000517,63.0834787 84.0248476,62.5765222 C87.7349617,62.1709569 95.0832486,65.6790963 93.8653857,72.0566098 C93.5231848,73.9497842 92.4284504,75.6296014 90.8246117,76.7225312 C89.220773,77.8154609 87.2407865,78.2309004 85.3249292,77.8764712 C83.3206177,77.499831 81.659773,76.1206377 80.9416503,74.2365231 C80.9416503,74.2365231 64.4979314,75.2504362 65.0117976,70.6878271 C65.5256639,66.1252181 74.2613895,57 74.2613895,57 Z" id="Path" fill="#915766"></path>
            <path d="M31.903495,58.8480766 C31.903495,58.8480766 38.5677194,69.1580338 31.903495,75.8595061 C25.2392706,82.5609783 18.0624135,83.591974 18.0624135,83.591974 C18.0624135,83.591974 20.6255768,88.2314548 10.8855565,87.7159569 C1.14553618,87.2004591 -1.9302597,84.1074719 1.14553618,79.4679911 C4.22133206,74.8285103 11.9108218,69.6735317 10.3729238,66.0650467 C8.83502589,62.4565616 6.7844953,54.7240937 9.86029118,50.0846129 C8.62036014,49.0522829 7.5329183,47.8476754 6.6307055,46.5070577 C3.90862615,42.341835 9.35791119,37.6508044 13.1257611,40.893286 L16.0118829,43.3831407 C16.0118829,43.3831407 24.7266379,36.1661706 43.6940459,39.7746556 C43.6940459,39.7746556 51.3835356,39.2591578 52.9214335,33.5886813 C52.9214335,33.5886813 44.7193112,15.5462561 66.2498824,2.14331163 C70.121225,0.453478284 74.3459772,-0.254582599 78.5530659,0.0813201735 C85.729923,0.596818037 93.4194127,1.1123159 98.5457391,12.4532689 C98.5457391,12.4532689 102.733948,20.1857368 107.655221,23.1653145 C110.340288,24.8454158 112.16206,27.6206479 112.643137,30.763753 C114.124645,39.6457812 112.24841,53.7704226 82.1414944,46.4761279 C82.1414944,46.4761279 79.8346475,65.2917999 65.4809334,73.0242678 C65.4809334,73.0242678 64.4556681,78.1792465 65.4809334,79.72574 C66.5061987,81.2722336 71.6325252,88.4892037 63.4304028,87.9737059 C59.3293416,87.7211119 56.1663982,87.7159569 53.9877094,87.7829716 C52.0894541,87.8423453 50.3141067,86.8415236 49.374052,85.1821013 C48.4339972,83.5226791 48.4832988,81.4766156 49.5021738,79.8649245 C49.5278054,79.8185297 49.5585634,79.7721349 49.5893213,79.72574 C49.6200793,79.6793452 51.1272193,72.50877 46.0008928,66.8382935 L44.9756275,60.6523191 L31.903495,58.8480766 Z" id="Path" fill="#9C5E6D"></path>
            <ellipse id="Oval" fill="#915766" cx="103.5" cy="29.5" rx="6.5" ry="2.5"></ellipse>
            <path d="M71,19.6479653 C71,28.2895334 66.5039439,28.7966434 59,35.2907559 C51.4960561,41.7848685 47,28.2895334 47,19.6479653 C47,11.0063971 52.3742331,4 59,4 C65.6257669,4 71,11.0063971 71,19.6479653 Z" id="Path" fill="#915766"></path>
        </g>
        <g id="undraw_ice_cream_s2rh" transform="translate(1285.000000, 745.000000)" fill-rule="nonzero">
            <path d="M34,32 C34,32 33.112247,34.7688648 31.726965,38.7471546 C31.278982,40.0394401 30.777293,41.4580367 30.2363905,42.9511988 C29.4828369,45.0304295 28.6528978,47.2546312 27.7837452,49.4788329 C27.2490428,50.847742 26.6998739,52.2145654 26.1445063,53.550332 C23.1592249,60.7096162 19.9798899,66.9121091 17.8967717,66.999099 C13.216531,67.1937735 3.19122996,35.78156 2.09702606,32.3106426 C2.03301345,32.1076818 2,32 2,32 L34,32 Z" id="Path" fill="#3F3D56"></path>
            <path d="M32,38.7772215 C31.5484044,40.0752658 31.0426696,41.500184 30.4974051,43 L18,32 L24.2996904,32 L32,38.7772215 Z" id="Path" fill="#000000" opacity="0.1"></path>
            <path d="M28,49.8435452 C27.4608128,51.2410179 26.9070379,52.6363613 26.3470122,54 L2.09783985,32.3171244 C2.03329034,32.1099287 2,32 2,32 L8.04564719,32 L28,49.8435452 Z" id="Path" fill="#000000" opacity="0.1"></path>
            <path d="M18.2089071,4.06475728 C16.7520284,5.25724657 14.4483159,4.8063352 13.0481671,6.06930521 C12.0904457,6.93319491 11.8349711,8.41046932 12.0962965,9.69607211 C12.357622,10.9816749 13.0520648,12.1224383 13.7506862,13.2199543 C14.2328442,13.9774129 14.7330504,14.7408462 15.4105498,15.3169242 C16.3577775,16.1223522 17.5734125,16.4972893 18.764995,16.7984349 C21.3599107,17.4540364 24.0096997,17.8509386 26.6779621,17.9836894 C27.8678537,18.0427997 29.215444,17.9836894 30.0171577,17.0732074 C30.4840072,16.5430243 30.671751,15.8164387 30.8085525,15.1137118 C31.0225455,14.0144708 31.1414808,12.8309932 30.6992626,11.8070689 C30.3357834,10.9654596 29.6361547,10.3346231 28.9278364,9.77456056 C26.706077,8.01783606 24.0893618,6.56345653 22.7333601,4.03493709 C22.194369,3.02988901 21.8619695,1.86524019 21.0450563,1.08544641 C19.9801915,0.0690486198 17.6108833,-0.346556504 16.3570868,0.332413665 C16.5507545,0.788735587 19.0822637,3.3498945 18.2089071,4.06475728 Z" id="Path" fill="#38D39F"></path>
            <path d="M6.59903763,15.817614 C6.1738529,17.2981358 5.7821508,18.8646137 6.14016576,20.3629364 C6.61219626,22.3384224 8.33712115,23.8178961 10.2292842,24.537032 C12.1214473,25.2561679 14.1849109,25.3401284 16.2066587,25.4159518 L26.7920138,25.8129435 C28.1223211,25.8628348 29.4782488,25.9175829 30.7284745,26.3767797 C31.7589277,26.7552582 32.9836585,27.3784753 33.8427336,26.6930842 C34.2323651,26.3822256 34.4074119,25.878895 34.5456782,25.398862 C34.9955892,23.8368555 35.2472829,22.1216158 34.6422373,20.6133574 C33.9489039,18.8850136 32.2392548,17.7493345 30.4641553,17.2064775 C28.6890559,16.6636204 26.8091078,16.6107562 24.9647679,16.4057479 C23.0938554,16.1976935 21.2439909,15.8299953 19.4352338,15.3066406 C17.9231065,14.8690291 16.3910769,14.2915831 15.2725883,13.180002 C14.6675639,12.5787172 14.2094298,11.845422 13.6391602,11.2108145 C10.3724197,7.57552796 7.40250773,13.0199079 6.59903763,15.817614 Z" id="Path" fill="#38D39F"></path>
            <path d="M3.95751569,22.7776448 C1.8178987,23.7275058 0.335624688,25.7176219 0.0499689729,28.0239568 C-0.235686743,30.3302918 0.716915026,32.6166577 2.56120232,34.0512378 C4.20804706,35.332238 6.36320941,35.7777052 8.45125183,35.9268309 C10.4901717,36.0724499 12.5379001,35.9722709 14.5796043,35.8720434 L32.6441641,34.985247 C33.7030489,34.9332649 34.9014901,34.81248 35.547871,33.9795882 C36.0302893,33.3579686 36.058656,32.5006114 35.9434742,31.7247268 C35.5291199,28.9336951 33.4028113,26.4628021 30.6874461,25.6169176 C29.6633456,25.2978917 28.5851432,25.1969472 27.5163244,25.0978281 L19.7725521,24.3796978 C18.7297249,24.2829884 17.6807914,24.1852092 16.6700838,23.9129103 C13.6077782,23.0878847 10.8714496,20.6790996 7.71849968,21.0357651 C5.57951165,21.2777349 3.81834697,22.7619054 2.2645576,24.2388553" id="Path" fill="#38D39F"></path>
            <path d="M14,10 C14,10 16.4472055,14.2742144 29,16" id="Path" fill="#000000" opacity="0.1"></path>
            <path d="M7,22 C7,22 11.6811486,27 31,27" id="Path" fill="#000000" opacity="0.1"></path>
            <ellipse id="Oval" fill="#3F3D56" cx="18" cy="7.5" rx="1" ry="1"></ellipse>
            <ellipse id="Oval" fill="#3F3D56" cx="22" cy="10.5" rx="1" ry="1"></ellipse>
            <ellipse id="Oval" fill="#3F3D56" cx="27" cy="13.5" rx="1" ry="1"></ellipse>
            <ellipse id="Oval" fill="#3F3D56" cx="10" cy="14.5" rx="1" ry="1"></ellipse>
            <ellipse id="Oval" fill="#3F3D56" cx="21" cy="18.5" rx="1" ry="1"></ellipse>
            <ellipse id="Oval" fill="#3F3D56" cx="6" cy="26.5" rx="1" ry="1"></ellipse>
            <ellipse id="Oval" fill="#3F3D56" cx="14" cy="18.5" rx="1" ry="1"></ellipse>
            <ellipse id="Oval" fill="#3F3D56" cx="9" cy="29.5" rx="1" ry="1"></ellipse>
            <ellipse id="Oval" fill="#3F3D56" cx="17" cy="27.5" rx="1" ry="1"></ellipse>
            <ellipse id="Oval" fill="#38D39F" cx="21.5" cy="35" rx="1.5" ry="3"></ellipse>
            <ellipse id="Oval" fill="#38D39F" cx="23.5" cy="36" rx="1.5" ry="3"></ellipse>
        </g>
    </g>
</svg>