<?xml version="1.0" encoding="UTF-8"?>
<svg width="80px" height="90px" viewBox="0 0 80 90" version="1.1" xmlns="http://www.w3.org/2000/svg" xmlns:xlink="http://www.w3.org/1999/xlink">
    <!-- Generator: Sketch 57.1 (83088) - https://sketch.com -->
    <title>lightbulb</title>
    <desc>Created with Sketch.</desc>
    <g id="Page-1" stroke="none" stroke-width="1" fill="none" fill-rule="evenodd">
        <g id="lightbulb">
            <path d="M48.147,71.345 L48.147,72.853 L32.313,72.853 L32.313,71.345 L48.147,71.345 Z M35.611,46.262 L33.651,46.262 C32.571,46.262 31.692,45.383 31.692,44.303 C31.692,43.223 32.571,42.344 33.651,42.344 C34.732,42.344 35.611,43.223 35.611,44.303 L35.611,46.262 Z M38.611,49.262 L41.849,49.262 L41.849,68.345 L38.611,68.345 L38.611,49.262 Z M32.313,77.361 L32.313,75.853 L48.147,75.853 L48.147,77.361 L32.313,77.361 Z M40.23,86 C39.081,86 38.094,85.238 37.586,84.425 L42.873,84.425 C42.367,85.238 41.379,86 40.23,86 Z M46.141,81.369 L45.242,81.369 C45.086,81.369 44.935,81.391 44.789,81.425 L35.674,81.425 C35.528,81.391 35.377,81.369 35.221,81.369 L34.32,81.369 C33.579,81.369 32.938,80.961 32.59,80.361 L47.87,80.361 C47.523,80.96 46.882,81.369 46.141,81.369 Z M54.16,56.181 C50.712,59.379 48.609,63.748 48.227,68.345 L44.85,68.345 L44.85,49.262 L46.81,49.262 C49.544,49.262 51.769,47.037 51.769,44.303 C51.769,41.569 49.544,39.344 46.81,39.344 C44.075,39.344 41.85,41.569 41.85,44.303 L41.85,46.262 L38.612,46.262 L38.612,44.303 C38.612,41.568 36.387,39.344 33.652,39.344 C30.918,39.344 28.693,41.569 28.693,44.303 C28.693,47.037 30.918,49.262 33.652,49.262 L35.612,49.262 L35.612,68.345 L32.235,68.345 C31.853,63.747 29.75,59.379 26.302,56.181 C21.616,51.834 19.257,45.669 19.83,39.268 C20.716,29.382 28.859,21.412 38.772,20.727 C39.263,20.693 39.749,20.683 40.231,20.683 C40.714,20.683 41.2,20.693 41.69,20.727 C51.603,21.412 59.747,29.382 60.632,39.269 C61.205,45.669 58.847,51.834 54.16,56.181 Z M44.85,46.262 L44.85,44.303 C44.85,43.222 45.729,42.344 46.81,42.344 C47.89,42.344 48.769,43.223 48.769,44.303 C48.769,45.383 47.89,46.262 46.81,46.262 L44.85,46.262 Z" id="Shape" fill="#000000" fill-rule="nonzero"></path>
            <ellipse id="Oval" fill-opacity="0.6" fill="#5BC0EB" cx="57.5" cy="26" rx="12.5" ry="13"></ellipse>
            <ellipse id="Oval-Copy" fill="#FFC1C8" cx="20.5" cy="44" rx="18.5" ry="19"></ellipse>
            <ellipse id="Oval-Copy-2" fill="#FFE3B0" cx="57.5" cy="75" rx="11.5" ry="12"></ellipse>
            <path d="M64.616,38.912 C63.556,27.088 53.819,17.555 41.965,16.737 C40.802,16.656 39.663,16.656 38.496,16.737 C26.642,17.555 16.904,27.088 15.845,38.912 C15.161,46.555 17.981,53.918 23.58,59.114 C26.588,61.904 28.313,65.815 28.313,69.845 L28.313,79.362 C28.313,82.426 30.619,84.962 33.586,85.325 C34.503,87.797 37.048,90 40.23,90 C43.412,90 45.958,87.797 46.874,85.324 C49.842,84.961 52.147,82.425 52.147,79.361 L52.147,69.844 C52.147,65.815 53.873,61.904 56.88,59.113 C62.481,53.918 65.301,46.555 64.616,38.912 Z" id="Shape-path" fill="#000000" fill-rule="nonzero"></path>
            <polygon id="Shape-path" fill="#FFFFFF" points="48.147 71.345 48.147 72.853 32.313 72.853 32.313 71.345"></polygon>
            <path d="M35.611,46.262 L33.651,46.262 C32.571,46.262 31.692,45.383 31.692,44.303 C31.692,43.223 32.571,42.344 33.651,42.344 C34.732,42.344 35.611,43.223 35.611,44.303 L35.611,46.262 Z" id="Shape-path" fill="#FFFFFF"></path>
            <polygon id="Shape-path" fill="#FFFFFF" points="38.611 49.262 41.849 49.262 41.849 68.345 38.611 68.345"></polygon>
            <polygon id="Shape-path" fill="#FFFFFF" points="32.313 77.361 32.313 75.853 48.147 75.853 48.147 77.361"></polygon>
            <path d="M40.23,86 C39.081,86 38.094,85.238 37.586,84.425 L42.873,84.425 C42.367,85.238 41.379,86 40.23,86 Z" id="Shape-path" fill="#FFFFFF"></path>
            <path d="M46.141,81.369 L45.242,81.369 C45.086,81.369 44.935,81.391 44.789,81.425 L35.674,81.425 C35.528,81.391 35.377,81.369 35.221,81.369 L34.32,81.369 C33.579,81.369 32.938,80.961 32.59,80.361 L47.87,80.361 C47.523,80.96 46.882,81.369 46.141,81.369 Z" id="Shape-path" fill="#FFFFFF"></path>
            <path d="M54.16,56.181 C50.712,59.379 48.609,63.748 48.227,68.345 L44.85,68.345 L44.85,49.262 L46.81,49.262 C49.544,49.262 51.769,47.037 51.769,44.303 C51.769,41.569 49.544,39.344 46.81,39.344 C44.075,39.344 41.85,41.569 41.85,44.303 L41.85,46.262 L38.612,46.262 L38.612,44.303 C38.612,41.568 36.387,39.344 33.652,39.344 C30.918,39.344 28.693,41.569 28.693,44.303 C28.693,47.037 30.918,49.262 33.652,49.262 L35.612,49.262 L35.612,68.345 L32.235,68.345 C31.853,63.747 29.75,59.379 26.302,56.181 C21.616,51.834 19.257,45.669 19.83,39.268 C20.716,29.382 28.859,21.412 38.772,20.727 C39.263,20.693 39.749,20.683 40.231,20.683 C40.714,20.683 41.2,20.693 41.69,20.727 C51.603,21.412 59.747,29.382 60.632,39.269 C61.205,45.669 58.847,51.834 54.16,56.181 Z" id="Shape-path" fill="#FFFFFF"></path>
            <path d="M44.85,46.262 L44.85,44.303 C44.85,43.222 45.729,42.344 46.81,42.344 C47.89,42.344 48.769,43.223 48.769,44.303 C48.769,45.383 47.89,46.262 46.81,46.262 L44.85,46.262 Z" id="Shape-path" fill="#FFFFFF"></path>
            <path d="M40.231,10.119 C41.103,10.119 41.817,9.405 41.817,8.533 L41.817,1.586 C41.816,0.714 41.103,0 40.231,0 C39.359,0 38.645,0.714 38.645,1.586 L38.645,8.534 C38.645,9.405 39.359,10.119 40.231,10.119 Z" id="Path" fill="#000000" fill-rule="nonzero"></path>
            <path d="M64.552,8.052 C63.847,7.539 62.85,7.697 62.337,8.403 L58.253,14.024 C57.741,14.73 57.898,15.726 58.604,16.239 C59.31,16.752 60.306,16.594 60.819,15.888 L64.903,10.267 C65.415,9.562 65.258,8.565 64.552,8.052 Z" id="Path" fill="#000000" fill-rule="nonzero"></path>
            <path d="M71.87,33.008 L78.478,30.861 C79.307,30.591 79.765,29.692 79.496,28.863 C79.226,28.034 78.327,27.576 77.498,27.845 L70.89,29.992 C70.061,30.261 69.603,31.161 69.872,31.99 C70.141,32.819 71.04,33.277 71.87,33.008 Z" id="Path" fill="#000000" fill-rule="nonzero"></path>
            <path d="M78.335,52.484 L71.727,50.337 C70.898,50.068 69.998,50.526 69.729,51.355 C69.459,52.184 69.917,53.083 70.747,53.353 L77.355,55.5 C78.184,55.769 79.083,55.311 79.353,54.482 C79.622,53.653 79.164,52.754 78.335,52.484 Z" id="Path" fill="#000000" fill-rule="nonzero"></path>
            <path d="M60.446,67.289 C59.933,66.584 58.937,66.426 58.231,66.938 C57.526,67.451 57.368,68.447 57.88,69.153 L61.964,74.774 C62.476,75.479 63.473,75.637 64.179,75.125 C64.884,74.612 65.042,73.616 64.53,72.91 L60.446,67.289 Z" id="Path" fill="#000000" fill-rule="nonzero"></path>
            <path d="M21.396,66.667 C20.69,66.154 19.694,66.312 19.181,67.018 L15.097,72.639 C14.584,73.345 14.742,74.341 15.448,74.854 C16.154,75.367 17.15,75.209 17.663,74.503 L21.747,68.882 C22.259,68.176 22.101,67.18 21.396,66.667 Z" id="Path" fill="#000000" fill-rule="nonzero"></path>
            <path d="M10.128,50.916 C9.859,50.087 8.959,49.628 8.13,49.898 L1.522,52.045 C0.693,52.314 0.234,53.214 0.504,54.043 C0.774,54.872 1.673,55.33 2.502,55.061 L9.11,52.914 C9.94,52.645 10.398,51.746 10.128,50.916 L10.128,50.916 Z" id="Path" fill="#000000" fill-rule="nonzero"></path>
            <path d="M9.253,29.553 L2.645,27.406 C1.816,27.137 0.917,27.595 0.647,28.424 C0.377,29.253 0.836,30.152 1.665,30.422 L8.273,32.569 C9.102,32.838 10.002,32.38 10.271,31.551 C10.54,30.721 10.082,29.822 9.253,29.553 Z" id="Path" fill="#000000" fill-rule="nonzero"></path>
            <path d="M19.554,15.617 C20.067,16.322 21.063,16.48 21.769,15.968 C22.475,15.455 22.632,14.459 22.12,13.753 L18.036,8.132 C17.523,7.426 16.527,7.269 15.821,7.781 C15.115,8.294 14.958,9.29 15.47,9.996 L19.554,15.617 Z" id="Path" fill="#000000" fill-rule="nonzero"></path>
        </g>
    </g>
</svg>