<?xml version="1.0" encoding="UTF-8"?>
<svg width="88px" height="90px" viewBox="0 0 88 90" version="1.1" xmlns="http://www.w3.org/2000/svg" xmlns:xlink="http://www.w3.org/1999/xlink">
    <!-- Generator: Sketch 57.1 (83088) - https://sketch.com -->
    <title>celebration</title>
    <desc>Created with Sketch.</desc>
    <g id="Page-1" stroke="none" stroke-width="1" fill="none" fill-rule="evenodd">
        <g id="celebration">
            <circle id="Oval" fill="#FFC1C8" cx="53.5" cy="62.5" r="21.5"></circle>
            <circle id="Oval-Copy-2" fill="#FFE3B0" cx="11.5" cy="15.5" r="10.5"></circle>
            <circle id="Oval-Copy" fill-opacity="0.6" fill="#5BC0EB" cx="74" cy="13" r="13"></circle>
            <path d="M1.149,88.717 C1.743,89.521 2.686,90 3.672,90 C3.672,90 3.672,90 3.673,90 C4.265,90 4.849,89.826 5.361,89.496 L40.204,67.051 C41.116,66.463 41.678,65.465 41.706,64.38 C41.734,63.295 41.225,62.27 40.344,61.635 L17.708,45.345 C17.146,44.941 16.486,44.727 15.798,44.727 C14.348,44.727 13.087,45.658 12.661,47.041 L0.687,85.955 C0.393,86.913 0.562,87.92 1.149,88.717 Z M11.772,60.13 L20.327,76.287 L12.847,81.105 L7.899,72.718 L11.772,60.13 Z M38.7061446,64.303 C38.704,64.369 38.681,64.463 38.578,64.53 L33.134,68.037 L27.46,56.06 L38.591,64.071 C38.67,64.127 38.708,64.205 38.7061446,64.303 Z M15.527,47.924 C15.586,47.733 15.775,47.727 15.797,47.727 C15.854,47.727 15.905,47.745 15.955,47.781 L22.422,52.435 L30.591,69.675 L22.858,74.656 L13.019,56.075 L15.527,47.924 Z M6.705,76.598 L10.323,82.73 L3.736,86.973 C3.688,87.002 3.617,87.064 3.554,86.837 L6.705,76.598 Z" id="Shape" fill="#000000" fill-rule="nonzero"></path>
            <polygon id="Shape-path" fill="#FFFFFF" points="11.772 60.13 20.327 76.287 12.847 81.105 7.899 72.718"></polygon>
            <path d="M38.7061446,64.303 C38.704,64.369 38.681,64.463 38.578,64.53 L33.134,68.037 L27.46,56.06 L38.591,64.071 C38.67,64.127 38.708,64.205 38.7061446,64.303 Z" id="Shape-path" fill="#FFFFFF"></path>
            <path d="M15.527,47.924 C15.586,47.733 15.775,47.727 15.797,47.727 C15.854,47.727 15.905,47.745 15.955,47.781 L22.422,52.435 L30.591,69.675 L22.858,74.656 L13.019,56.075 L15.527,47.924 Z" id="Shape-path" fill="#FFFFFF"></path>
            <path d="M6.705,76.598 L10.323,82.73 L3.736,86.973 C3.688,87.002 3.617,87.064 3.554,86.837 L6.705,76.598 Z" id="Shape-path" fill="#FFFFFF"></path>
            <path d="M64.955,33.604 C64.905,34.173 65.184,34.72 65.672,35.016 L70.975,38.232 L71.334,44.423 C71.366,44.993 71.721,45.494 72.246,45.717 C72.434,45.797 72.634,45.836 72.831,45.836 C73.185,45.836 73.533,45.711 73.81,45.472 L78.506,41.422 L84.506,42.994 C85.056,43.14 85.644,42.958 86.019,42.526 C86.393,42.094 86.491,41.488 86.269,40.962 L83.868,35.244 L87.218,30.024 C87.527,29.543 87.535,28.929 87.24,28.44 C86.946,27.952 86.409,27.683 85.83,27.718 L79.65,28.236 L75.72,23.437 C75.359,22.996 74.782,22.796 74.221,22.926 C73.665,23.055 73.231,23.488 73.1,24.044 L71.681,30.081 L65.904,32.335 C65.372,32.544 65.004,33.036 64.955,33.604 Z M73.506,32.592 C73.966,32.412 74.309,32.019 74.421,31.537 L75.325,27.69 L77.829,30.748 C78.142,31.13 78.612,31.325 79.114,31.293 L83.051,30.963 L80.917,34.288 C80.65,34.704 80.605,35.225 80.797,35.68 L82.327,39.323 L78.504,38.321 C78.029,38.195 77.519,38.314 77.145,38.636 L74.153,41.216 L73.924,37.272 C73.896,36.78 73.627,36.333 73.204,36.077 L69.826,34.028 L73.506,32.592 Z" id="Shape" fill="#000000" fill-rule="nonzero"></path>
            <path d="M73.506,32.592 C73.966,32.412 74.309,32.019 74.421,31.537 L75.325,27.69 L77.829,30.748 C78.142,31.13 78.612,31.325 79.114,31.293 L83.051,30.963 L80.917,34.288 C80.65,34.704 80.605,35.225 80.797,35.68 L82.327,39.323 L78.504,38.321 C78.029,38.195 77.519,38.314 77.145,38.636 L74.153,41.216 L73.924,37.272 C73.896,36.78 73.627,36.333 73.204,36.077 L69.826,34.028 L73.506,32.592 Z" id="Shape-path" fill="#FFFFFF"></path>
            <path d="M36.845,16.169 C37.156,16.648 37.706,16.911 38.278,16.844 L43.683,16.212 L47.266,20.307 C47.555,20.638 47.968,20.82 48.395,20.82 C48.524,20.82 48.654,20.803 48.781,20.769 C49.333,20.623 49.754,20.174 49.866,19.615 L50.936,14.28 L55.938,12.137 C56.462,11.912 56.814,11.408 56.845,10.839 C56.875,10.269 56.579,9.731 56.082,9.45 L51.339,6.783 L50.846,1.364 C50.794,0.796 50.424,0.305 49.891,0.1 C49.36,-0.104 48.756,0.009 48.335,0.396 L44.334,4.084 L39.027,2.878 C38.469,2.749 37.89,2.952 37.531,3.396 C37.171,3.839 37.093,4.448 37.332,4.967 L39.602,9.912 L36.816,14.585 C36.522,15.076 36.534,15.689 36.845,16.169 Z M42.657,9.377 L41.326,6.478 L44.438,7.185 C44.916,7.291 45.423,7.16 45.787,6.826 L48.133,4.664 L48.422,7.841 C48.467,8.333 48.751,8.771 49.181,9.013 L51.963,10.577 L49.029,11.833 C48.575,12.027 48.246,12.433 48.149,12.917 L47.521,16.045 L45.42,13.645 C45.133,13.317 44.721,13.132 44.291,13.132 C44.233,13.132 44.175,13.135 44.117,13.142 L40.947,13.512 L42.581,10.773 C42.835,10.347 42.863,9.826 42.657,9.377 Z" id="Shape" fill="#000000" fill-rule="nonzero"></path>
            <path d="M42.657,9.377 L41.326,6.478 L44.438,7.185 C44.916,7.291 45.423,7.16 45.787,6.826 L48.133,4.664 L48.422,7.841 C48.467,8.333 48.751,8.771 49.181,9.013 L51.963,10.577 L49.029,11.833 C48.575,12.027 48.246,12.433 48.149,12.917 L47.521,16.045 L45.42,13.645 C45.133,13.317 44.721,13.132 44.291,13.132 C44.233,13.132 44.175,13.135 44.117,13.142 L40.947,13.512 L42.581,10.773 C42.835,10.347 42.863,9.826 42.657,9.377 Z" id="Shape-path" fill="#FFFFFF"></path>
            <path d="M22.402,20.808 C20.948,21.625 19.137,22.643 18.462,25.335 C17.787,28.027 18.901,29.778 19.798,31.186 C20.64,32.507 21.099,33.323 20.754,34.696 C20.553,35.5 21.04,36.314 21.844,36.516 C21.967,36.546 22.089,36.561 22.21,36.561 C22.882,36.561 23.493,36.107 23.664,35.426 C24.34,32.734 23.225,30.982 22.328,29.574 C21.486,28.253 21.027,27.438 21.372,26.065 C21.717,24.692 22.506,24.19 23.872,23.423 C25.327,22.606 27.137,21.588 27.813,18.896 C28.488,16.205 27.373,14.455 26.476,13.047 C25.634,11.727 25.174,10.912 25.519,9.541 C25.864,8.169 26.653,7.668 28.019,6.9 C29.473,6.084 31.284,5.066 31.959,2.375 C32.16,1.571 31.673,0.757 30.869,0.555 C30.062,0.358 29.251,0.841 29.049,1.645 C28.704,3.017 27.915,3.518 26.549,4.286 C25.095,5.102 23.284,6.12 22.609,8.811 C21.934,11.502 23.049,13.253 23.946,14.66 C24.788,15.981 25.247,16.795 24.903,18.166 C24.559,19.539 23.769,20.04 22.402,20.808 Z" id="Path" fill="#000000" fill-rule="nonzero"></path>
            <path d="M62.396,23.877 C61.248,24.705 60.321,24.578 58.785,24.286 C57.144,23.973 55.107,23.584 52.855,25.208 C50.605,26.832 50.331,28.89 50.11,30.543 C49.903,32.096 49.73,33.014 48.584,33.841 C47.436,34.67 46.508,34.545 44.969,34.251 C43.329,33.938 41.288,33.551 39.038,35.174 C36.787,36.799 36.512,38.857 36.291,40.51 C36.083,42.064 35.91,42.983 34.762,43.811 C34.09,44.295 33.938,45.233 34.422,45.905 C34.715,46.312 35.174,46.528 35.64,46.528 C35.945,46.528 36.251,46.436 36.516,46.245 C38.768,44.621 39.043,42.562 39.265,40.909 C39.473,39.355 39.646,38.436 40.794,37.608 C41.94,36.778 42.868,36.905 44.407,37.198 C46.045,37.511 48.085,37.898 50.338,36.275 C52.589,34.652 52.863,32.594 53.084,30.94 C53.291,29.388 53.464,28.469 54.611,27.642 C55.758,26.814 56.686,26.94 58.222,27.233 C59.863,27.546 61.9,27.935 64.152,26.311 C64.824,25.827 64.975,24.889 64.491,24.217 C64.006,23.543 63.067,23.393 62.396,23.877 Z" id="Path" fill="#000000" fill-rule="nonzero"></path>
            <path d="M59.001,53.1 C56.25,53.473 55.038,55.159 54.063,56.513 C53.149,57.785 52.563,58.514 51.16,58.704 C50.339,58.815 49.764,59.57 49.875,60.392 C49.977,61.145 50.62,61.691 51.359,61.691 C51.426,61.691 51.494,61.687 51.562,61.677 C54.313,61.305 55.525,59.619 56.5,58.264 C57.414,56.992 58,56.263 59.403,56.073 C60.801,55.882 61.564,56.43 62.784,57.414 C64.083,58.462 65.707,59.772 68.451,59.393 C71.201,59.021 72.412,57.334 73.385,55.98 C74.299,54.709 74.884,53.979 76.285,53.79 C77.685,53.601 78.445,54.146 79.665,55.131 C80.963,56.178 82.574,57.477 85.33,57.11 C86.15,57 86.726,56.244 86.615,55.422 C86.505,54.601 85.746,54.021 84.927,54.137 C83.529,54.323 82.767,53.779 81.547,52.796 C80.248,51.748 78.626,50.442 75.882,50.817 C73.132,51.189 71.921,52.876 70.948,54.23 C70.034,55.501 69.449,56.231 68.048,56.42 C66.643,56.613 65.885,56.063 64.666,55.079 C63.368,54.03 61.746,52.724 59.001,53.1 Z" id="Path" fill="#000000" fill-rule="nonzero"></path>
            <circle id="Oval" fill="#000000" fill-rule="nonzero" cx="68.639" cy="9.131" r="2.36"></circle>
            <circle id="Oval" fill="#000000" fill-rule="nonzero" cx="7.068" cy="36.723" r="2.149"></circle>
            <circle id="Oval" fill="#000000" fill-rule="nonzero" cx="60.207" cy="67.363" r="2.149"></circle>
        </g>
    </g>
</svg>