<?xml version="1.0" encoding="UTF-8"?>
<svg width="167px" height="48px" viewBox="0 0 167 48" version="1.1" xmlns="http://www.w3.org/2000/svg" xmlns:xlink="http://www.w3.org/1999/xlink">
    <!-- Generator: Sketch 52.6 (67491) - http://www.bohemiancoding.com/sketch -->
    <title>Group 10</title>
    <desc>Created with Sketch.</desc>
    <g id="Page-1" stroke="none" stroke-width="1" fill="none" fill-rule="evenodd">
        <g id="Desktop-HD-Copy-5" transform="translate(-208.000000, -42.000000)">
            <g id="Group-10" transform="translate(208.000000, 42.000000)">
                <path d="M64.24,35.76 L64.6,13.24 C64.6,13.2 64.64,13.12 64.64,13.04 C64.8,12.04 65.08,10.24 66.36,10.04 C66.64,10 68,9.88 68.28,9.88 C68.28,9.88 68.52,9.84 68.64,9.84 C69.72,9.84 70.88,10 71.88,10.4 C72.08,10.48 72.92,10.88 73,11 C75.52,12.32 75.68,15.48 75.68,16.32 L75.68,16.92 C75.36,17.32 75.48,18.2 75.24,18.76 C75.24,18.8 75.08,19.08 75.08,19.12 C73.88,22.08 71.68,24.16 67.84,25.12 C67.76,25.48 67.68,27.32 67.68,27.72 C67.56,30.08 67.52,32.68 67.52,35.04 L67.52,37.84 C67.52,38.08 67.12,38.2 67,38.2 C66.88,38.2 65.68,38.28 65.36,38.32 L65.2,38.32 C64,38.32 64.28,36.72 64.24,35.88 L64.24,35.76 Z M68.2,14.96 C68.04,17.08 67.92,19.36 67.92,21.48 L68.04,21.48 C68.04,21.48 69.12,20.96 69.56,20.72 C71.08,19.88 72.24,18.16 72.24,16.4 C72.24,14.28 70.96,13.2 68.88,13.2 C68.8,13.2 68.28,13.24 68.2,13.24 C68.16,13.36 68.08,14.04 68.08,14.16 C68.08,14.24 68.16,14.8 68.2,14.84 L68.2,14.96 Z M78.6067856,30.12 C78.6067856,29.96 78.6867856,29.2 78.6867856,29.08 C78.7267856,27.32 78.8067856,25.36 78.8067856,23.56 C78.8067856,23.24 78.8067856,23.12 78.6867856,22.8 L78.6867856,16.08 C78.6867856,15.76 78.8467856,12.92 78.8867856,12.04 C78.8867856,11.44 78.8867856,10.12 79.4867856,9.72 L80.0067856,9.72 C80.4867856,9.72 81.2467856,9.6 81.6067856,10 C82.0467856,10.44 82.0067856,11.44 82.0467856,12.04 C82.0467856,12.24 82.1267856,14.08 82.1267856,14.32 L82.1267856,15.76 C82.1267856,17.76 82.0067856,19.64 82.0467856,21.64 C81.8867856,22.28 81.9667856,23.12 81.9667856,23.76 C81.8867856,27.4 82.2467856,30.92 82.0067856,34.52 C81.9267856,34.76 82.1267856,35.2 82.4467856,35.04 L84.8067856,35.04 C85.2467856,35.04 86.2067856,35.08 86.2067856,35.76 L86.2067856,37.6 L86.1267856,37.8 L86.0867856,37.8 C85.5667856,37.84 85.0067856,37.88 84.5267856,38.08 L78.9667856,38.08 C78.9267856,38.08 78.8867856,38 78.8867856,37.96 C78.6467856,37.64 78.8067856,37.48 78.8067856,37.04 C78.7667856,35.96 78.6067856,31.16 78.6067856,30.12 Z M93.9735712,11.84 C94.0535712,11.6 94.5735712,10.08 94.8935712,10.08 L97.3735712,10.08 L97.8935712,10.44 L103.613571,35.92 C103.973571,37.52 103.613571,37.76 101.173571,37.76 C101.093571,37.76 100.853571,37.76 100.813571,37.72 C100.453571,37.48 100.133571,36.44 100.013571,36.04 C99.8135712,35.32 99.3735712,33.72 98.8935712,31.6 L92.7735712,31.6 C92.3335712,33.64 91.9735712,35.44 91.7735712,36.68 C91.7335712,36.92 91.7335712,37.16 91.6135712,37.4 C91.5335712,37.52 91.1735712,37.68 91.0935712,37.68 L89.2135712,37.68 C88.7735712,37.68 88.4935712,37.12 88.4935712,36.8 L88.4935712,36.48 C88.5735712,35.88 88.8135712,34.08 93.9735712,11.84 Z M95.933286,17.4816631 C95.6926535,18.8838609 94.533144,23.7618514 93.4535712,28.44 L98.2535712,28.44 C97.0968967,23.3745634 95.9004512,17.672791 95.9332578,17.481513 L95.933286,17.4816631 Z M106.980357,22.56 C104.100357,21.6 103.540357,17.28 103.540357,14.76 C103.540357,13.16 103.780357,11.76 104.380357,10.28 C104.420357,10.08 104.580357,10.08 104.740357,10.08 C105.180357,10.08 107.220357,10.24 107.220357,11.08 C107.220357,11.36 107.100357,11.56 107.100357,11.8 C107.100357,12.12 107.020357,12.4 107.020357,12.68 C107.020357,13.48 106.940357,14.16 106.940357,14.96 L106.940357,16.2 C107.220357,16.84 107.260357,20.32 108.500357,20.32 C111.460357,20.32 111.460357,14 111.700357,11.68 C111.740357,11.16 111.580357,10.16 112.300357,9.92 L112.860357,9.92 C114.580357,9.92 115.020357,10.08 114.980357,11.84 C114.740357,22.32 110.900357,21.72 110.340357,22.56 L110.540357,25.48 C110.540357,25.56 110.620357,25.84 110.660357,25.92 L110.660357,32.12 C110.780357,32.96 110.700357,34.32 110.700357,35.08 L110.700357,37.04 C110.580357,37.28 110.340357,37.4 110.100357,37.4 L108.220357,37.4 C107.540357,37.4 107.500357,33.04 107.460357,32.28 C107.340357,29.96 107.180357,27.6 107.100357,25.32 L107.100357,23.2 C107.100357,23.08 107.020357,22.64 106.980357,22.56 Z M117.027142,35.76 L117.387142,13.24 C117.387142,13.2 117.427142,13.12 117.427142,13.04 C117.587142,12.04 117.867142,10.24 119.147142,10.04 C119.427142,10 120.787142,9.88 121.067142,9.88 C121.067142,9.88 121.307142,9.84 121.427142,9.84 C122.507142,9.84 123.667142,10 124.667142,10.4 C124.867142,10.48 125.707142,10.88 125.787142,11 C128.307142,12.32 128.467142,15.48 128.467142,16.32 L128.467142,16.92 C128.147142,17.32 128.267142,18.2 128.027142,18.76 C128.027142,18.8 127.867142,19.08 127.867142,19.12 C126.667142,22.08 124.467142,24.16 120.627142,25.12 C120.547142,25.48 120.467142,27.32 120.467142,27.72 C120.347142,30.08 120.307142,32.68 120.307142,35.04 L120.307142,37.84 C120.307142,38.08 119.907142,38.2 119.787142,38.2 C119.667142,38.2 118.467142,38.28 118.147142,38.32 L117.987142,38.32 C116.787142,38.32 117.067142,36.72 117.027142,35.88 L117.027142,35.76 Z M120.987142,14.96 C120.827142,17.08 120.707142,19.36 120.707142,21.48 L120.827142,21.48 C120.827142,21.48 121.907142,20.96 122.347142,20.72 C123.867142,19.88 125.027142,18.16 125.027142,16.4 C125.027142,14.28 123.747142,13.2 121.667142,13.2 C121.587142,13.2 121.067142,13.24 120.987142,13.24 C120.947142,13.36 120.867142,14.04 120.867142,14.16 C120.867142,14.24 120.947142,14.8 120.987142,14.84 L120.987142,14.96 Z M133.113928,11.84 C133.193928,11.6 133.713928,10.08 134.033928,10.08 L136.513928,10.08 L137.033928,10.44 L142.753928,35.92 C143.113928,37.52 142.753928,37.76 140.313928,37.76 C140.233928,37.76 139.993928,37.76 139.953928,37.72 C139.593928,37.48 139.273928,36.44 139.153928,36.04 C138.953928,35.32 138.513928,33.72 138.033928,31.6 L131.913928,31.6 C131.473928,33.64 131.113928,35.44 130.913928,36.68 C130.873928,36.92 130.873928,37.16 130.753928,37.4 C130.673928,37.52 130.313928,37.68 130.233928,37.68 L128.353928,37.68 C127.913928,37.68 127.633928,37.12 127.633928,36.8 L127.633928,36.48 C127.713928,35.88 127.953928,34.08 133.113928,11.84 Z M135.073643,17.4816631 C134.83301,18.8838609 133.673501,23.7618514 132.593928,28.44 L137.393928,28.44 C136.237254,23.3745634 135.040808,17.672791 135.073615,17.481513 L135.073643,17.4816631 Z M144.200714,30.4 C144.200714,29.44 146.080714,29.6 146.720714,29.6 L147.240714,29.6 C148.000714,30.76 147.240714,35.12 149.240714,35.12 C150.280714,35.12 150.440714,34.32 150.440714,33.36 C150.440714,31.96 149.840714,30.44 149.320714,29.16 C148.640714,27.56 147.720714,26.72 146.720714,25.28 C145.680714,23.84 144.880714,22.32 144.120714,20.72 C143.760714,19.76 143.600714,18.8 143.600714,17.76 C143.600714,14.8 144.400714,10.28 148.880714,10.56 C152.960714,10.8 153.720714,14.08 153.720714,17.08 C153.720714,18.2 153.760714,20.8 152.080714,20.8 C151.800714,20.8 150.240714,20 150.240714,19.56 C150.240714,18.84 150.360714,18.2 150.360714,17.52 L150.360714,17.16 C150.360714,15.32 150.600714,13.44 148.880714,13.56 L148.840714,13.56 C146.920714,13.44 146.720714,16.32 146.720714,17.44 C146.720714,19.24 147.880714,20.68 148.800714,22.12 C149.880714,23.76 150.960714,25.2 151.880714,26.92 C152.760714,28.48 153.720714,31 153.720714,32.84 C153.720714,33.68 153.520714,34.8 153.200714,35.56 C153.160714,35.56 152.960714,35.84 152.920714,35.88 C152.880714,35.96 152.720714,36.32 152.680714,36.4 C151.520714,37.6 150.680714,38.2 149.000714,38.2 C148.640714,38.2 148.440714,38.08 148.120714,37.96 C147.640714,37.8 147.360714,37.8 146.920714,37.52 C145.280714,36.48 144.640714,34.4 144.480714,32.6 C144.400714,31.88 144.200714,31.12 144.200714,30.4 Z M156.687499,30.4 C156.687499,29.44 158.567499,29.6 159.207499,29.6 C159.287499,29.6 159.647499,29.6 159.727499,29.6 C160.487499,30.76 159.727499,35.12 161.727499,35.12 C162.767499,35.12 162.927499,34.32 162.927499,33.36 C162.927499,31.96 162.327499,30.44 161.807499,29.16 C161.127499,27.56 160.207499,26.72 159.207499,25.28 C158.167499,23.84 157.367499,22.32 156.607499,20.72 C156.247499,19.76 156.087499,18.8 156.087499,17.76 C156.087499,14.8 156.887499,10.28 161.367499,10.56 C165.447499,10.8 166.207499,14.08 166.207499,17.08 C166.207499,18.2 166.247499,20.8 164.567499,20.8 C164.287499,20.8 162.727499,20 162.727499,19.56 C162.727499,18.84 162.847499,18.2 162.847499,17.52 C162.847499,17.4 162.847499,17.28 162.847499,17.16 C162.847499,15.32 163.087499,13.44 161.367499,13.56 C161.367499,13.56 161.327499,13.56 161.327499,13.56 C159.407499,13.44 159.207499,16.32 159.207499,17.44 C159.207499,19.24 160.367499,20.68 161.287499,22.12 C162.367499,23.76 163.447499,25.2 164.367499,26.92 C165.247499,28.48 166.207499,31 166.207499,32.84 C166.207499,33.68 166.007499,34.8 165.687499,35.56 C165.647499,35.56 165.447499,35.84 165.407499,35.88 C165.367499,35.96 165.207499,36.32 165.167499,36.4 C164.007499,37.6 163.167499,38.2 161.487499,38.2 C161.127499,38.2 160.927499,38.08 160.607499,37.96 C160.127499,37.8 159.847499,37.8 159.407499,37.52 C157.767499,36.48 157.127499,34.4 156.967499,32.6 C156.887499,31.88 156.687499,31.12 156.687499,30.4 Z" id="playpass" fill="#000000"></path>
                <g id="Group-11">
                    <circle id="Oval" fill="#83DAFF" cx="24" cy="24" r="24"></circle>
                    <circle id="Oval" fill="#000000" transform="translate(16.130738, 24.972372) rotate(-11.000000) translate(-16.130738, -24.972372) " cx="16.1307383" cy="24.9723718" r="2"></circle>
                    <circle id="Oval-Copy" fill="#000000" transform="translate(41.579554, 19.248102) rotate(-11.000000) translate(-41.579554, -19.248102) " cx="41.5795538" cy="19.248102" r="2"></circle>
                    <path d="M24.2605287,27.109227 L40.2605287,27.109227 C40.2605287,31.527505 36.6788067,35.109227 32.2605287,35.109227 C27.8422507,35.109227 24.2605287,31.527505 24.2605287,27.109227 Z" id="Combined-Shape" fill="#000000" transform="translate(32.260529, 31.109227) rotate(-15.000000) translate(-32.260529, -31.109227) "></path>
                </g>
            </g>
        </g>
    </g>
</svg>